<svg xmlns="http://www.w3.org/2000/svg" xmlns:xlink="http://www.w3.org/1999/xlink" width="340" zoomAndPan="magnify" viewBox="0 0 255 84.749999" height="113" preserveAspectRatio="xMidYMid meet" version="1.2"><defs><clipPath id="790af7d557"><path d="M 1.121094 6 L 254.625 6 L 254.625 79 L 1.121094 79 Z M 1.121094 6 "/></clipPath><clipPath id="155934427a"><path d="M 17.386719 19.199219 L 29.625 19.199219 L 29.625 30.65625 L 17.386719 30.65625 Z M 17.386719 19.199219 "/></clipPath><clipPath id="6486989349"><path d="M 20.332031 19.300781 C 20.332031 19.300781 18.363281 19.378906 17.773438 19.789062 C 17.1875 20.195312 17.773438 20.695312 17.773438 20.695312 L 18.390625 20.648438 C 22.171875 20.648438 24.136719 26.03125 24.285156 30.226562 L 24.824219 30.539062 L 29.554688 23.871094 C 26.917969 20.769531 24.515625 19.300781 20.332031 19.300781 M 20.34375 19.742188 C 24.023438 19.746094 26.320312 20.839844 28.992188 23.898438 L 24.71875 29.925781 C 24.46875 25.160156 22.203125 20.203125 18.390625 20.203125 L 18.105469 20.210938 L 17.960938 20.214844 L 17.988281 20.179688 C 18.359375 19.921875 19.578125 19.773438 20.34375 19.742188 "/></clipPath><clipPath id="259bd33240"><path d="M 0.386719 0.199219 L 12.625 0.199219 L 12.625 11.613281 L 0.386719 11.613281 Z M 0.386719 0.199219 "/></clipPath><clipPath id="26285b9b4c"><path d="M 3.332031 0.300781 C 3.332031 0.300781 1.363281 0.378906 0.773438 0.789062 C 0.1875 1.195312 0.773438 1.695312 0.773438 1.695312 L 1.390625 1.648438 C 5.171875 1.648438 7.136719 7.03125 7.285156 11.226562 L 7.824219 11.539062 L 12.554688 4.871094 C 9.917969 1.769531 7.515625 0.300781 3.332031 0.300781 M 3.34375 0.742188 C 7.023438 0.746094 9.320312 1.839844 11.992188 4.898438 L 7.71875 10.925781 C 7.46875 6.160156 5.203125 1.203125 1.390625 1.203125 L 1.105469 1.210938 L 0.960938 1.214844 L 0.988281 1.179688 C 1.359375 0.921875 2.578125 0.773438 3.34375 0.742188 "/></clipPath><clipPath id="628fcb2c66"><rect x="0" width="13" y="0" height="12"/></clipPath><clipPath id="fb19ed710e"><path d="M 15.816406 19.515625 L 27.898438 19.515625 L 27.898438 26.417969 L 15.816406 26.417969 Z M 15.816406 19.515625 "/></clipPath><clipPath id="a913f7d3fd"><path d="M 15.925781 20.8125 C 15.929688 20.8125 18.5625 19.644531 21.351562 19.644531 C 24.285156 19.644531 27.402344 20.941406 27.828125 26.152344 L 27.769531 26.324219 L 27.507812 26.269531 L 27.5 26.179688 C 27.085938 21.179688 24.148438 19.976562 21.351562 19.976562 C 18.636719 19.976562 16.058594 21.117188 16.0625 21.117188 L 15.882812 21.117188 L 15.84375 20.851562 Z M 15.925781 20.8125 "/></clipPath><clipPath id="1cb8108257"><path d="M 0.816406 0.605469 L 12.851562 0.605469 L 12.851562 7.417969 L 0.816406 7.417969 Z M 0.816406 0.605469 "/></clipPath><clipPath id="8543528d9d"><path d="M 0.925781 1.8125 C 0.929688 1.8125 3.5625 0.644531 6.351562 0.644531 C 9.285156 0.644531 12.402344 1.941406 12.828125 7.152344 L 12.769531 7.324219 L 12.507812 7.269531 L 12.5 7.179688 C 12.085938 2.179688 9.148438 0.976562 6.351562 0.976562 C 3.636719 0.976562 1.058594 2.117188 1.0625 2.117188 L 0.882812 2.117188 L 0.84375 1.851562 Z M 0.925781 1.8125 "/></clipPath><clipPath id="358a19e349"><rect x="0" width="13" y="0" height="8"/></clipPath><clipPath id="03d483d313"><path d="M 18.011719 19.828125 L 26.957031 19.828125 L 26.957031 27.832031 L 18.011719 27.832031 Z M 18.011719 19.828125 "/></clipPath><clipPath id="095af55e77"><path d="M 18.117188 19.9375 C 25.042969 19.304688 26.648438 22.714844 26.878906 25.25 C 27.003906 26.617188 26.730469 27.703125 26.726562 27.710938 L 26.40625 27.628906 C 26.40625 27.636719 26.671875 26.589844 26.550781 25.277344 C 26.335938 22.925781 24.890625 19.652344 18.148438 20.265625 Z M 18.117188 19.9375 "/></clipPath><clipPath id="e688769f9c"><path d="M 0.0390625 0.828125 L 8.957031 0.828125 L 8.957031 8.742188 L 0.0390625 8.742188 Z M 0.0390625 0.828125 "/></clipPath><clipPath id="29290b95c6"><path d="M 0.117188 0.9375 C 7.042969 0.304688 8.648438 3.714844 8.878906 6.25 C 9.003906 7.617188 8.730469 8.703125 8.726562 8.710938 L 8.40625 8.628906 C 8.40625 8.636719 8.671875 7.589844 8.550781 6.277344 C 8.335938 3.925781 6.890625 0.652344 0.148438 1.265625 Z M 0.117188 0.9375 "/></clipPath><clipPath id="840e607e34"><rect x="0" width="9" y="0" height="9"/></clipPath><clipPath id="511954eb38"><path d="M 18.167969 20 L 26.171875 20 L 26.171875 29.558594 L 18.167969 29.558594 Z M 18.167969 20 "/></clipPath><clipPath id="d42a54d873"><path d="M 25.25 29.367188 C 25.253906 29.359375 25.796875 27.894531 25.796875 26.148438 C 25.796875 23.570312 24.625 20.351562 18.589844 20.351562 L 18.375 20.351562 L 18.257812 20.019531 L 18.480469 20.015625 L 18.589844 20.015625 C 24.832031 20.015625 26.128906 23.410156 26.128906 26.144531 C 26.128906 27.953125 25.570312 29.460938 25.5625 29.476562 Z M 25.25 29.367188 "/></clipPath><clipPath id="ce62862e95"><path d="M 0.167969 0 L 8.171875 0 L 8.171875 9.558594 L 0.167969 9.558594 Z M 0.167969 0 "/></clipPath><clipPath id="5ef89e4af9"><path d="M 7.25 9.367188 C 7.253906 9.359375 7.796875 7.894531 7.796875 6.148438 C 7.796875 3.570312 6.625 0.351562 0.589844 0.351562 L 0.375 0.351562 L 0.257812 0.0195312 L 0.480469 0.015625 L 0.589844 0.015625 C 6.832031 0.015625 8.128906 3.410156 8.128906 6.144531 C 8.128906 7.953125 7.570312 9.460938 7.5625 9.476562 Z M 7.25 9.367188 "/></clipPath><clipPath id="55171753cf"><rect x="0" width="9" y="0" height="10"/></clipPath><clipPath id="f5c6f6f222"><path d="M 18.011719 20.140625 L 25.390625 20.140625 L 25.390625 30.34375 L 18.011719 30.34375 Z M 18.011719 20.140625 "/></clipPath><clipPath id="ab6ce56a6d"><path d="M 24.917969 30.144531 L 24.996094 29.992188 L 24.78125 29.953125 L 24.546875 30.222656 L 24.597656 30.058594 C 24.609375 30.03125 24.683594 29.75 24.765625 29.296875 C 25.144531 27.160156 25.546875 21.636719 19.984375 20.644531 C 19.429688 20.546875 18.816406 20.492188 18.132812 20.488281 L 18.132812 20.160156 C 18.832031 20.160156 19.464844 20.214844 20.039062 20.320312 C 25.945312 21.371094 25.46875 27.257812 25.09375 29.355469 C 25.011719 29.816406 24.929688 30.113281 24.917969 30.164062 L 24.917969 30.316406 L 24.726562 30.28125 L 24.625 29.914062 Z M 24.917969 30.144531 "/></clipPath><clipPath id="bf6528bf4a"><path d="M 0.0390625 0.140625 L 7.390625 0.140625 L 7.390625 10.34375 L 0.0390625 10.34375 Z M 0.0390625 0.140625 "/></clipPath><clipPath id="f227eadddb"><path d="M 6.917969 10.144531 L 6.996094 9.992188 L 6.78125 9.953125 L 6.546875 10.222656 L 6.597656 10.058594 C 6.609375 10.03125 6.683594 9.75 6.765625 9.296875 C 7.144531 7.160156 7.546875 1.636719 1.984375 0.644531 C 1.429688 0.546875 0.816406 0.492188 0.132812 0.488281 L 0.132812 0.160156 C 0.832031 0.160156 1.464844 0.214844 2.039062 0.320312 C 7.945312 1.371094 7.46875 7.257812 7.09375 9.355469 C 7.011719 9.816406 6.929688 10.113281 6.917969 10.164062 L 6.917969 10.316406 L 6.726562 10.28125 L 6.625 9.914062 Z M 6.917969 10.144531 "/></clipPath><clipPath id="8581996d99"><rect x="0" width="8" y="0" height="11"/></clipPath><clipPath id="3c62e1f5f5"><path d="M 18.011719 20.140625 L 24.917969 20.140625 L 24.917969 30.34375 L 18.011719 30.34375 Z M 18.011719 20.140625 "/></clipPath><clipPath id="782dc5452a"><path d="M 24.683594 30.144531 L 24.710938 30.320312 L 24.492188 30.28125 L 24.382812 29.894531 L 24.359375 30.089844 C 24.402344 29.746094 25.476562 21.710938 18.929688 20.589844 L 18.121094 20.488281 L 18.148438 20.160156 C 18.441406 20.183594 18.71875 20.214844 18.984375 20.261719 C 25.894531 21.445312 24.722656 29.890625 24.6875 30.132812 L 24.6875 30.136719 L 24.761719 29.988281 L 24.550781 29.953125 L 24.324219 30.296875 L 24.359375 30.085938 Z M 24.683594 30.144531 "/></clipPath><clipPath id="c1dfdd2a4a"><path d="M 0.0390625 0.140625 L 6.917969 0.140625 L 6.917969 10.34375 L 0.0390625 10.34375 Z M 0.0390625 0.140625 "/></clipPath><clipPath id="0d0f57bbef"><path d="M 6.683594 10.144531 L 6.710938 10.320312 L 6.492188 10.28125 L 6.382812 9.894531 L 6.359375 10.089844 C 6.402344 9.746094 7.476562 1.710938 0.929688 0.589844 L 0.121094 0.488281 L 0.148438 0.160156 C 0.441406 0.183594 0.71875 0.214844 0.984375 0.261719 C 7.894531 1.445312 6.722656 9.890625 6.6875 10.132812 L 6.6875 10.136719 L 6.761719 9.988281 L 6.550781 9.953125 L 6.324219 10.296875 L 6.359375 10.085938 Z M 6.683594 10.144531 "/></clipPath><clipPath id="cae5cb0271"><rect x="0" width="7" y="0" height="11"/></clipPath><clipPath id="6773be5937"><path d="M 25.074219 20.457031 L 28.683594 20.457031 L 28.683594 25 L 25.074219 25 Z M 25.074219 20.457031 "/></clipPath><clipPath id="2cd12dbe47"><path d="M 28.226562 24.933594 C 28.226562 24.933594 27.949219 21.929688 25.21875 20.789062 L 25.347656 20.484375 C 28.265625 21.703125 28.558594 24.898438 28.558594 24.902344 Z M 28.226562 24.933594 "/></clipPath><clipPath id="4f440dbb8f"><path d="M 0.21875 0.457031 L 3.570312 0.457031 L 3.570312 5 L 0.21875 5 Z M 0.21875 0.457031 "/></clipPath><clipPath id="d16c260688"><path d="M 3.226562 4.933594 C 3.226562 4.933594 2.949219 1.929688 0.21875 0.789062 L 0.347656 0.484375 C 3.265625 1.703125 3.558594 4.898438 3.558594 4.902344 Z M 3.226562 4.933594 "/></clipPath><clipPath id="d16dce81fe"><rect x="0" width="4" y="0" height="5"/></clipPath><clipPath id="621d8800f8"><path d="M 31.195312 19.199219 L 69 19.199219 L 69 57.179688 L 31.195312 57.179688 Z M 31.195312 19.199219 "/></clipPath><clipPath id="ccf515c4eb"><path d="M 37.992188 30.960938 L 62.714844 30.960938 C 61.707031 24.21875 55.664062 18.792969 48.066406 20.265625 C 42.796875 21.273438 39.386719 25.691406 37.992188 30.960938 M 57.90625 31.582031 L 37.839844 31.582031 C 36.832031 35.6875 37.0625 40.261719 38.382812 43.980469 C 41.25 52.121094 47.058594 55.683594 54.964844 55.375 C 61.632812 55.066406 67.441406 50.492188 68.21875 44.445312 C 69.148438 36.386719 63.800781 31.582031 57.910156 31.582031 M 68.914062 44.292969 C 68.449219 49.792969 63.566406 57.078125 52.5625 57.078125 C 41.867188 57.078125 31.558594 51.808594 31.25 39.023438 C 30.863281 25.613281 43.03125 19.804688 51.558594 19.339844 C 58.144531 19.03125 67.214844 22.207031 68.296875 31.585938 L 61.089844 31.585938 C 65.507812 32.746094 69.535156 37.242188 68.917969 44.292969 "/></clipPath><clipPath id="67492be7e2"><path d="M 0.195312 0.199219 L 38 0.199219 L 38 38.171875 L 0.195312 38.171875 Z M 0.195312 0.199219 "/></clipPath><clipPath id="4e7d4b36f2"><path d="M 6.992188 11.960938 L 31.714844 11.960938 C 30.707031 5.21875 24.664062 -0.207031 17.066406 1.265625 C 11.796875 2.273438 8.386719 6.691406 6.992188 11.960938 M 26.90625 12.582031 L 6.839844 12.582031 C 5.832031 16.6875 6.0625 21.261719 7.382812 24.980469 C 10.25 33.121094 16.058594 36.683594 23.964844 36.375 C 30.632812 36.066406 36.441406 31.492188 37.21875 25.445312 C 38.148438 17.386719 32.800781 12.582031 26.910156 12.582031 M 37.914062 25.292969 C 37.449219 30.792969 32.566406 38.078125 21.5625 38.078125 C 10.867188 38.078125 0.558594 32.808594 0.25 20.023438 C -0.136719 6.613281 12.03125 0.804688 20.558594 0.339844 C 27.144531 0.03125 36.214844 3.207031 37.296875 12.585938 L 30.089844 12.585938 C 34.507812 13.746094 38.535156 18.242188 37.917969 25.292969 "/></clipPath><clipPath id="82a78bdf42"><rect x="0" width="38" y="0" height="39"/></clipPath><clipPath id="7e89a6f278"><path d="M 1.222656 19.199219 L 10.949219 19.199219 L 10.949219 56.707031 L 1.222656 56.707031 Z M 1.222656 19.199219 "/></clipPath><clipPath id="04e2cb9ecf"><path d="M 9.226562 48.484375 L 9.226562 51.507812 C 9.226562 54.21875 9.769531 55.382812 10.929688 56.078125 L 10.929688 56.621094 L 1.320312 56.621094 L 1.320312 56.078125 C 2.558594 55.382812 3.101562 54.21875 3.101562 51.507812 L 3.101562 25.3125 C 3.101562 22.597656 2.871094 21.824219 1.320312 21.59375 L 1.320312 21.050781 L 8.605469 19.34375 L 9.226562 19.34375 L 9.226562 40.113281 "/></clipPath><clipPath id="e8262f0e07"><path d="M 0.289062 0.199219 L 9.949219 0.199219 L 9.949219 37.695312 L 0.289062 37.695312 Z M 0.289062 0.199219 "/></clipPath><clipPath id="595a0b1bb8"><path d="M 8.226562 29.484375 L 8.226562 32.507812 C 8.226562 35.21875 8.769531 36.382812 9.929688 37.078125 L 9.929688 37.621094 L 0.320312 37.621094 L 0.320312 37.078125 C 1.558594 36.382812 2.101562 35.21875 2.101562 32.507812 L 2.101562 6.3125 C 2.101562 3.597656 1.871094 2.824219 0.320312 2.59375 L 0.320312 2.050781 L 7.605469 0.34375 L 8.226562 0.34375 L 8.226562 21.113281 "/></clipPath><clipPath id="825fde0eb8"><rect x="0" width="10" y="0" height="38"/></clipPath><clipPath id="f733d3e40d"><path d="M 9.066406 19.359375 L 20.523438 19.359375 L 20.523438 45.722656 L 9.066406 45.722656 Z M 9.066406 19.359375 "/></clipPath><clipPath id="8bfe283919"><path d="M 20.425781 19.8125 L 20.203125 19.507812 L 18.042969 19.882812 L 18.132812 19.621094 C 18.132812 19.621094 10.363281 20.582031 9.167969 40.382812 L 9.25 45.699219 C 9.25 45.699219 9.4375 22.726562 17.773438 20.691406 L 17.898438 20.324219 Z M 20.425781 19.8125 "/></clipPath><clipPath id="16e7cad9a8"><path d="M 0.0664062 0.363281 L 11.433594 0.363281 L 11.433594 26.722656 L 0.0664062 26.722656 Z M 0.0664062 0.363281 "/></clipPath><clipPath id="196b456d56"><path d="M 11.425781 0.8125 L 11.203125 0.507812 L 9.042969 0.882812 L 9.132812 0.621094 C 9.132812 0.621094 1.363281 1.582031 0.167969 21.382812 L 0.25 26.699219 C 0.25 26.699219 0.4375 3.726562 8.773438 1.691406 L 8.898438 1.324219 Z M 11.425781 0.8125 "/></clipPath><clipPath id="8fc5e4a149"><rect x="0" width="12" y="0" height="27"/></clipPath><clipPath id="d0c58d3f16"><path d="M 74.417969 0.738281 L 100.070312 0.738281 L 100.070312 56.652344 L 74.417969 56.652344 Z M 74.417969 0.738281 "/></clipPath><clipPath id="7a6895fa18"><path d="M 85.113281 19.957031 L 85.113281 51.5 C 85.113281 54.210938 85.65625 55.375 86.816406 56.074219 L 86.816406 56.617188 L 77.285156 56.617188 L 77.285156 56.074219 C 78.449219 55.375 78.988281 54.210938 78.988281 51.5 L 78.988281 26.160156 C 78.988281 21.976562 77.4375 19.960938 74.417969 19.960938 L 74.417969 19.335938 L 85.8125 19.335938 C 81.160156 19.105469 74.730469 15.308594 74.730469 10.117188 C 74.730469 4.84375 78.988281 0.738281 86.664062 0.738281 C 89.996094 0.738281 93.949219 1.589844 96.738281 3.605469 L 95.578125 11.742188 L 95.03125 11.742188 C 93.171875 7.015625 88.136719 -0.582031 82.945312 1.824219 C 80.308594 2.984375 79.378906 7.09375 80.078125 11.277344 C 80.617188 14.609375 83.097656 19.335938 89.375 19.335938 L 100.070312 19.335938 L 100.070312 19.957031 Z M 85.113281 19.957031 "/></clipPath><clipPath id="9c17a1c59e"><path d="M 0.417969 0.738281 L 26.070312 0.738281 L 26.070312 56.652344 L 0.417969 56.652344 Z M 0.417969 0.738281 "/></clipPath><clipPath id="d4da0c96a2"><path d="M 11.113281 19.957031 L 11.113281 51.5 C 11.113281 54.210938 11.65625 55.375 12.816406 56.074219 L 12.816406 56.617188 L 3.285156 56.617188 L 3.285156 56.074219 C 4.449219 55.375 4.988281 54.210938 4.988281 51.5 L 4.988281 26.160156 C 4.988281 21.976562 3.4375 19.960938 0.417969 19.960938 L 0.417969 19.335938 L 11.8125 19.335938 C 7.160156 19.105469 0.730469 15.308594 0.730469 10.117188 C 0.730469 4.84375 4.988281 0.738281 12.664062 0.738281 C 15.996094 0.738281 19.949219 1.589844 22.738281 3.605469 L 21.578125 11.742188 L 21.03125 11.742188 C 19.171875 7.015625 14.136719 -0.582031 8.945312 1.824219 C 6.308594 2.984375 5.378906 7.09375 6.078125 11.277344 C 6.617188 14.609375 9.097656 19.335938 15.375 19.335938 L 26.070312 19.335938 L 26.070312 19.957031 Z M 11.113281 19.957031 "/></clipPath><clipPath id="3edfa2921b"><rect x="0" width="27" y="0" height="57"/></clipPath><clipPath id="8b6d99dbe4"><path d="M 103.167969 19.339844 L 139.285156 19.339844 L 139.285156 57.144531 L 103.167969 57.144531 Z M 103.167969 19.339844 "/></clipPath><clipPath id="26e5aef756"><path d="M 139.285156 56.617188 L 131.382812 56.617188 L 131.382812 37.785156 C 130.375 46.542969 127.738281 57.078125 117.660156 57.078125 C 110.53125 57.078125 104.875 52.585938 104.875 43.441406 L 104.875 25.304688 C 104.875 22.59375 104.640625 21.816406 103.167969 21.585938 L 103.167969 21.042969 L 110.457031 19.339844 L 111 19.339844 L 111 44.601562 C 111 51.34375 114.484375 56.925781 121.152344 55.683594 C 129.832031 53.980469 131.382812 37.78125 131.382812 31.273438 L 131.382812 25.304688 C 131.382812 22.59375 131.144531 21.816406 129.675781 21.585938 L 129.675781 21.042969 L 136.960938 19.339844 L 137.5 19.339844 L 137.5 51.5 C 137.5 54.210938 138.042969 55.375 139.285156 56.074219 Z M 139.285156 56.617188 "/></clipPath><clipPath id="c5b2764723"><path d="M 0.167969 0.339844 L 36.285156 0.339844 L 36.285156 38.144531 L 0.167969 38.144531 Z M 0.167969 0.339844 "/></clipPath><clipPath id="722bba6cda"><path d="M 36.285156 37.617188 L 28.382812 37.617188 L 28.382812 18.785156 C 27.375 27.542969 24.738281 38.078125 14.660156 38.078125 C 7.53125 38.078125 1.875 33.585938 1.875 24.441406 L 1.875 6.304688 C 1.875 3.59375 1.640625 2.816406 0.167969 2.585938 L 0.167969 2.042969 L 7.457031 0.339844 L 8 0.339844 L 8 25.601562 C 8 32.34375 11.484375 37.925781 18.152344 36.683594 C 26.832031 34.980469 28.382812 18.78125 28.382812 12.273438 L 28.382812 6.304688 C 28.382812 3.59375 28.144531 2.816406 26.675781 2.585938 L 26.675781 2.042969 L 33.960938 0.339844 L 34.5 0.339844 L 34.5 32.5 C 34.5 35.210938 35.042969 36.375 36.285156 37.074219 Z M 36.285156 37.617188 "/></clipPath><clipPath id="3ac88e75ba"><rect x="0" width="37" y="0" height="39"/></clipPath><clipPath id="375a80dbe5"><path d="M 144.671875 17.097656 L 191.507812 17.097656 L 191.507812 70.65625 L 144.671875 70.65625 Z M 144.671875 17.097656 "/></clipPath><clipPath id="442c6a1290"><path d="M 182.683594 56.074219 C 180.277344 56.382812 175.320312 59.714844 170.824219 62.503906 L 167.335938 64.597656 C 168.808594 66.769531 171.210938 69.945312 176.945312 70.019531 C 182.914062 70.097656 186.246094 66.921875 186.558594 61.804688 C 186.710938 58.242188 185.785156 55.605469 182.683594 56.070312 M 170.128906 55.683594 C 178.886719 53.125 181.367188 43.4375 178.652344 34.0625 C 175.941406 24.761719 168.65625 18.175781 159.820312 20.734375 C 150.988281 23.292969 148.585938 32.976562 151.296875 42.355469 C 154.007812 51.65625 161.292969 58.320312 170.128906 55.683594 M 191.285156 60.488281 C 191.285156 66.613281 183.535156 70.566406 176.949219 70.566406 C 171.367188 70.566406 168.65625 67.542969 166.796875 64.984375 C 163.234375 67.15625 159.359375 69.171875 155.714844 69.402344 C 151.609375 69.710938 148.507812 68.238281 148.429688 64.675781 C 148.273438 59.949219 155.714844 57.390625 161.136719 56.847656 C 152.070312 55.761719 144.710938 49.71875 144.710938 39.875 C 144.710938 27.085938 155.402344 19.335938 165.789062 19.335938 C 168.886719 19.335938 171.832031 19.957031 174.46875 21.042969 L 187.71875 17.167969 L 188.1875 21.042969 L 175.707031 21.585938 C 181.289062 24.296875 185.164062 29.492188 185.164062 36.542969 C 185.164062 48.945312 174.546875 57.082031 164.085938 57.082031 C 163.851562 57.082031 163.621094 57.082031 163.308594 57.003906 C 158.195312 57.238281 152.226562 59.019531 152.617188 63.671875 C 152.769531 66.226562 154.085938 68.089844 156.953125 68.089844 C 160.910156 68.164062 165.402344 65.144531 170.363281 62.121094 C 176.097656 58.710938 180.902344 54.683594 184.855469 54.527344 C 189.503906 54.453125 191.285156 57.085938 191.285156 60.496094 "/></clipPath><clipPath id="1422f3a501"><path d="M 0.671875 0.0976562 L 47.289062 0.0976562 L 47.289062 53.574219 L 0.671875 53.574219 Z M 0.671875 0.0976562 "/></clipPath><clipPath id="821e290ab3"><path d="M 38.683594 39.074219 C 36.277344 39.382812 31.320312 42.714844 26.824219 45.503906 L 23.335938 47.597656 C 24.808594 49.769531 27.210938 52.945312 32.945312 53.019531 C 38.914062 53.097656 42.246094 49.921875 42.558594 44.804688 C 42.710938 41.242188 41.785156 38.605469 38.683594 39.070312 M 26.128906 38.683594 C 34.886719 36.125 37.367188 26.4375 34.652344 17.0625 C 31.941406 7.761719 24.65625 1.175781 15.820312 3.734375 C 6.988281 6.292969 4.585938 15.976562 7.296875 25.355469 C 10.007812 34.65625 17.292969 41.320312 26.128906 38.683594 M 47.285156 43.488281 C 47.285156 49.613281 39.535156 53.566406 32.949219 53.566406 C 27.367188 53.566406 24.65625 50.542969 22.796875 47.984375 C 19.234375 50.15625 15.359375 52.171875 11.714844 52.402344 C 7.609375 52.710938 4.507812 51.238281 4.429688 47.675781 C 4.273438 42.949219 11.714844 40.390625 17.136719 39.847656 C 8.070312 38.761719 0.710938 32.71875 0.710938 22.875 C 0.710938 10.085938 11.402344 2.335938 21.789062 2.335938 C 24.886719 2.335938 27.832031 2.957031 30.46875 4.042969 L 43.71875 0.167969 L 44.1875 4.042969 L 31.707031 4.585938 C 37.289062 7.296875 41.164062 12.492188 41.164062 19.542969 C 41.164062 31.945312 30.546875 40.082031 20.085938 40.082031 C 19.851562 40.082031 19.621094 40.082031 19.308594 40.003906 C 14.195312 40.238281 8.226562 42.019531 8.617188 46.671875 C 8.769531 49.226562 10.085938 51.089844 12.953125 51.089844 C 16.910156 51.164062 21.402344 48.144531 26.363281 45.121094 C 32.097656 41.710938 36.902344 37.683594 40.855469 37.527344 C 45.503906 37.453125 47.285156 40.085938 47.285156 43.496094 "/></clipPath><clipPath id="773b3cc8e8"><rect x="0" width="48" y="0" height="54"/></clipPath><clipPath id="c74ecf5aa8"><path d="M 192 5.738281 L 201.707031 5.738281 L 201.707031 56.746094 L 192 56.746094 Z M 192 5.738281 "/></clipPath><clipPath id="615d116ca8"><path d="M 192.992188 9.417969 C 192.992188 7.402344 194.617188 5.777344 196.632812 5.777344 C 198.648438 5.777344 200.277344 7.402344 200.277344 9.417969 C 200.277344 11.433594 198.648438 13.0625 196.632812 13.0625 C 194.617188 13.0625 192.992188 11.433594 192.992188 9.417969 M 201.671875 56.074219 L 201.671875 56.617188 L 192.0625 56.617188 L 192.0625 56.074219 C 193.222656 55.375 193.765625 54.214844 193.765625 51.5 L 193.765625 25.304688 C 193.765625 22.59375 193.535156 21.820312 192.0625 21.585938 L 192.0625 21.042969 L 199.34375 19.339844 L 199.886719 19.339844 L 199.886719 51.5 C 199.886719 54.210938 200.429688 55.375 201.671875 56.074219 "/></clipPath><clipPath id="6b8a076d77"><path d="M 0.0078125 0.738281 L 9.707031 0.738281 L 9.707031 51.695312 L 0.0078125 51.695312 Z M 0.0078125 0.738281 "/></clipPath><clipPath id="b6251292c6"><path d="M 0.992188 4.417969 C 0.992188 2.402344 2.617188 0.777344 4.632812 0.777344 C 6.648438 0.777344 8.277344 2.402344 8.277344 4.417969 C 8.277344 6.433594 6.648438 8.0625 4.632812 8.0625 C 2.617188 8.0625 0.992188 6.433594 0.992188 4.417969 M 9.671875 51.074219 L 9.671875 51.617188 L 0.0625 51.617188 L 0.0625 51.074219 C 1.222656 50.375 1.765625 49.214844 1.765625 46.5 L 1.765625 20.304688 C 1.765625 17.59375 1.535156 16.820312 0.0625 16.585938 L 0.0625 16.042969 L 7.34375 14.339844 L 7.886719 14.339844 L 7.886719 46.5 C 7.886719 49.210938 8.429688 50.375 9.671875 51.074219 "/></clipPath><clipPath id="4055a0929d"><rect x="0" width="10" y="0" height="52"/></clipPath><clipPath id="1405dcd10d"><path d="M 206.753906 19.203125 L 228.316406 19.203125 L 228.316406 57.265625 L 206.753906 57.265625 Z M 206.753906 19.203125 "/></clipPath><clipPath id="b7b0819777"><path d="M 228.152344 56.332031 C 221.175781 56.21875 215.636719 50.242188 213.347656 42.398438 C 210.632812 33 213.039062 23.292969 221.890625 20.730469 C 223.609375 20.234375 225.269531 20.085938 226.851562 20.230469 L 226.925781 19.355469 C 216.832031 19.808594 206.828125 27.488281 206.828125 39.910156 C 206.828125 50.78125 215.757812 57.152344 226.238281 57.152344 L 227.710938 57.089844 C 227.84375 56.84375 227.992188 56.585938 228.152344 56.332031 "/></clipPath><clipPath id="edc092cf1a"><path d="M 0.753906 0.203125 L 22.316406 0.203125 L 22.316406 38.171875 L 0.753906 38.171875 Z M 0.753906 0.203125 "/></clipPath><clipPath id="b2a2e146c8"><path d="M 22.152344 37.332031 C 15.175781 37.21875 9.636719 31.242188 7.347656 23.398438 C 4.632812 14 7.039062 4.292969 15.890625 1.730469 C 17.609375 1.234375 19.269531 1.085938 20.851562 1.230469 L 20.925781 0.355469 C 10.832031 0.808594 0.828125 8.488281 0.828125 20.910156 C 0.828125 31.78125 9.757812 38.152344 20.238281 38.152344 L 21.710938 38.089844 C 21.84375 37.84375 21.992188 37.585938 22.152344 37.332031 "/></clipPath><clipPath id="9223a69f45"><rect x="0" width="23" y="0" height="39"/></clipPath><clipPath id="80e8bb6cd6"><path d="M 226.441406 13.582031 L 252.5 13.582031 L 252.5 63 L 226.441406 63 Z M 226.441406 13.582031 "/></clipPath><clipPath id="389444d90b"><path d="M 229.285156 13.660156 C 242.085938 13.660156 252.429688 24.71875 252.429688 38.3125 L 252.132812 38.3125 L 252.429688 38.3125 C 252.429688 51.914062 242.085938 62.972656 229.285156 62.972656 C 227.625 62.972656 227.289062 61.96875 227.054688 61.246094 L 227.03125 61.160156 C 226.746094 60.285156 226.515625 58.859375 227.40625 57.152344 C 228.402344 55.242188 230.257812 52.964844 230.839844 52.371094 C 233.855469 49.285156 234.316406 47.125 234.421875 45.671875 L 234.453125 45.261719 C 234.464844 45.113281 234.476562 44.964844 234.484375 44.808594 C 234.5625 43.699219 234.617188 42.414062 234.359375 41.027344 L 234.652344 40.972656 L 234.359375 41.027344 C 233.691406 37.441406 232.191406 34.605469 231.398438 33.105469 L 231.085938 32.5 C 230.613281 31.554688 230.164062 30.6875 229.746094 29.882812 L 228.726562 27.894531 C 227.617188 25.675781 226.84375 23.835938 226.652344 21.828125 L 226.945312 21.800781 L 226.652344 21.828125 C 226.335938 18.5625 227.636719 15.585938 227.949219 15 L 228.210938 15.140625 L 227.949219 15.003906 L 228.066406 14.78125 C 228.304688 14.332031 228.464844 14.035156 228.621094 13.835938 L 228.855469 14.015625 L 228.617188 13.835938 L 228.808594 13.679688 L 228.910156 13.664062 L 229.078125 13.65625 L 229.234375 13.65625 L 229.289062 13.953125 L 229.289062 13.660156 M 229.289062 14.25 L 229 14.25 L 229.058594 14.234375 L 229.085938 14.195312 C 228.96875 14.347656 228.839844 14.585938 228.59375 15.054688 L 228.472656 15.28125 C 228.1875 15.8125 226.941406 18.667969 227.238281 21.769531 C 227.421875 23.660156 228.152344 25.417969 229.253906 27.628906 L 230.273438 29.609375 C 230.691406 30.414062 231.140625 31.289062 231.617188 32.234375 L 231.351562 32.367188 L 231.617188 32.234375 C 231.699219 32.394531 231.800781 32.589844 231.925781 32.828125 C 232.71875 34.332031 234.253906 37.238281 234.941406 40.921875 C 235.210938 42.382812 235.15625 43.726562 235.074219 44.847656 L 235.042969 45.304688 C 235.03125 45.445312 235.019531 45.582031 235.011719 45.710938 L 234.71875 45.691406 L 235.011719 45.710938 C 234.898438 47.3125 234.375 49.605469 231.261719 52.785156 L 231.054688 52.578125 L 231.261719 52.785156 C 230.714844 53.347656 228.894531 55.582031 227.929688 57.425781 L 227.667969 57.289062 L 227.929688 57.425781 C 227.132812 58.953125 227.339844 60.207031 227.59375 60.976562 L 227.308594 61.070312 L 227.589844 60.976562 L 227.617188 61.058594 C 227.835938 61.730469 228.039062 62.375 229.285156 62.375 C 241.726562 62.375 251.835938 51.621094 251.835938 38.3125 C 251.835938 25.003906 241.722656 14.25 229.285156 14.25 Z M 229.289062 14.25 "/></clipPath><clipPath id="b326bf4388"><path d="M 0.441406 0.621094 L 26.5 0.621094 L 26.5 50 L 0.441406 50 Z M 0.441406 0.621094 "/></clipPath><clipPath id="7e13119475"><path d="M 3.285156 0.660156 C 16.085938 0.660156 26.429688 11.71875 26.429688 25.3125 L 26.132812 25.3125 L 26.429688 25.3125 C 26.429688 38.914062 16.085938 49.972656 3.285156 49.972656 C 1.625 49.972656 1.289062 48.96875 1.054688 48.246094 L 1.03125 48.160156 C 0.746094 47.285156 0.515625 45.859375 1.40625 44.152344 C 2.402344 42.242188 4.257812 39.964844 4.839844 39.371094 C 7.855469 36.285156 8.316406 34.125 8.421875 32.671875 L 8.453125 32.261719 C 8.464844 32.113281 8.476562 31.964844 8.484375 31.808594 C 8.5625 30.699219 8.617188 29.414062 8.359375 28.027344 L 8.652344 27.972656 L 8.359375 28.027344 C 7.691406 24.441406 6.191406 21.605469 5.398438 20.105469 L 5.085938 19.5 C 4.613281 18.554688 4.164062 17.6875 3.746094 16.882812 L 2.726562 14.894531 C 1.617188 12.675781 0.84375 10.835938 0.652344 8.828125 L 0.945312 8.800781 L 0.652344 8.828125 C 0.335938 5.5625 1.636719 2.585938 1.949219 2 L 2.210938 2.140625 L 1.949219 2.003906 L 2.066406 1.78125 C 2.304688 1.332031 2.464844 1.035156 2.621094 0.835938 L 2.855469 1.015625 L 2.617188 0.835938 L 2.808594 0.679688 L 2.910156 0.664062 L 3.078125 0.65625 L 3.234375 0.65625 L 3.289062 0.953125 L 3.289062 0.660156 M 3.289062 1.25 L 3 1.25 L 3.058594 1.234375 L 3.085938 1.195312 C 2.96875 1.347656 2.839844 1.585938 2.59375 2.054688 L 2.472656 2.28125 C 2.1875 2.8125 0.941406 5.667969 1.238281 8.769531 C 1.421875 10.660156 2.152344 12.417969 3.253906 14.628906 L 4.273438 16.609375 C 4.691406 17.414062 5.140625 18.289062 5.617188 19.234375 L 5.351562 19.367188 L 5.617188 19.234375 C 5.699219 19.394531 5.800781 19.589844 5.925781 19.828125 C 6.71875 21.332031 8.253906 24.238281 8.941406 27.921875 C 9.210938 29.382812 9.15625 30.726562 9.074219 31.847656 L 9.042969 32.304688 C 9.03125 32.445312 9.019531 32.582031 9.011719 32.710938 L 8.71875 32.691406 L 9.011719 32.710938 C 8.898438 34.3125 8.375 36.605469 5.261719 39.785156 L 5.054688 39.578125 L 5.261719 39.785156 C 4.714844 40.347656 2.894531 42.582031 1.929688 44.425781 L 1.667969 44.289062 L 1.929688 44.425781 C 1.132812 45.953125 1.339844 47.207031 1.59375 47.976562 L 1.308594 48.070312 L 1.589844 47.976562 L 1.617188 48.058594 C 1.835938 48.730469 2.039062 49.375 3.285156 49.375 C 15.726562 49.375 25.835938 38.621094 25.835938 25.3125 C 25.835938 12.003906 15.722656 1.25 3.285156 1.25 Z M 3.289062 1.25 "/></clipPath><clipPath id="a752500e36"><rect x="0" width="27" y="0" height="50"/></clipPath><clipPath id="92f2b0e40b"><path d="M 235.25 15.082031 L 243.3125 15.082031 L 243.3125 61.761719 L 235.25 61.761719 Z M 235.25 15.082031 "/></clipPath><clipPath id="247338bbc9"><path d="M 237.207031 15.503906 C 237.214844 15.488281 236.234375 17.699219 236.234375 20.609375 C 236.234375 22.191406 236.523438 23.976562 237.417969 25.722656 L 237.152344 25.855469 L 237.414062 25.71875 C 237.394531 25.675781 242.890625 36.097656 242.953125 39.28125 L 242.65625 39.285156 L 242.949219 39.246094 C 242.949219 39.25 243.269531 41.597656 243.269531 44.175781 C 243.269531 46.210938 243.074219 48.472656 242.292969 49.8125 C 241.535156 51.121094 240.3125 52.253906 238.316406 54.113281 L 238.117188 54.296875 L 237.8125 54.175781 L 238.015625 54.390625 C 237.53125 54.839844 235.328125 56.976562 236.25 61.546875 L 235.667969 61.664062 C 234.691406 56.816406 237.046875 54.488281 237.613281 53.957031 L 237.914062 53.679688 C 239.9375 51.792969 241.078125 50.730469 241.785156 49.511719 L 242.042969 49.660156 L 241.785156 49.511719 C 242.472656 48.328125 242.679688 46.21875 242.679688 44.171875 C 242.679688 41.632812 242.363281 39.320312 242.363281 39.324219 L 242.359375 39.300781 L 242.359375 39.289062 C 242.300781 36.285156 236.917969 26.039062 236.886719 25.988281 L 236.886719 25.984375 C 235.941406 24.136719 235.636719 22.257812 235.636719 20.601562 C 235.636719 17.570312 236.652344 15.273438 236.660156 15.257812 Z M 237.207031 15.503906 "/></clipPath><clipPath id="ca4fe658f1"><path d="M 0.25 0.0820312 L 8.3125 0.0820312 L 8.3125 46.71875 L 0.25 46.71875 Z M 0.25 0.0820312 "/></clipPath><clipPath id="7d95aa4386"><path d="M 2.207031 0.503906 C 2.214844 0.488281 1.234375 2.699219 1.234375 5.609375 C 1.234375 7.191406 1.523438 8.976562 2.417969 10.722656 L 2.152344 10.855469 L 2.414062 10.71875 C 2.394531 10.675781 7.890625 21.097656 7.953125 24.28125 L 7.65625 24.285156 L 7.949219 24.246094 C 7.949219 24.25 8.269531 26.597656 8.269531 29.175781 C 8.269531 31.210938 8.074219 33.472656 7.292969 34.8125 C 6.535156 36.121094 5.3125 37.253906 3.316406 39.113281 L 3.117188 39.296875 L 2.8125 39.175781 L 3.015625 39.390625 C 2.53125 39.839844 0.328125 41.976562 1.25 46.546875 L 0.667969 46.664062 C -0.308594 41.816406 2.046875 39.488281 2.613281 38.957031 L 2.914062 38.679688 C 4.9375 36.792969 6.078125 35.730469 6.785156 34.511719 L 7.042969 34.660156 L 6.785156 34.511719 C 7.472656 33.328125 7.679688 31.21875 7.679688 29.171875 C 7.679688 26.632812 7.363281 24.320312 7.363281 24.324219 L 7.359375 24.300781 L 7.359375 24.289062 C 7.300781 21.285156 1.917969 11.039062 1.886719 10.988281 L 1.886719 10.984375 C 0.941406 9.136719 0.636719 7.257812 0.636719 5.601562 C 0.636719 2.570312 1.652344 0.273438 1.660156 0.257812 Z M 2.207031 0.503906 "/></clipPath><clipPath id="189b286a72"><rect x="0" width="9" y="0" height="47"/></clipPath><clipPath id="8ef1b11caf"><path d="M 237.3125 16.019531 L 245.75 16.019531 L 245.75 61 L 237.3125 61 Z M 237.3125 16.019531 "/></clipPath><clipPath id="35ade221e8"><path d="M 239.191406 16.320312 C 239.199219 16.304688 238.71875 17.917969 238.71875 20.257812 C 238.71875 22.40625 239.125 25.152344 240.664062 27.8125 L 240.667969 27.828125 C 240.664062 27.816406 244.65625 35.710938 245.464844 40.570312 L 245.464844 40.582031 C 245.464844 40.585938 245.71875 42.429688 245.71875 44.484375 C 245.71875 45.9375 245.59375 47.539062 245.136719 48.671875 L 244.863281 48.5625 L 245.15625 48.597656 C 245.144531 48.691406 244.867188 50.667969 241.226562 53.433594 L 241.046875 53.199219 L 241.226562 53.433594 C 241.195312 53.457031 238.042969 55.894531 238.042969 59.429688 C 238.042969 59.871094 238.09375 60.335938 238.203125 60.8125 L 237.628906 60.949219 C 237.503906 60.425781 237.449219 59.917969 237.449219 59.429688 C 237.449219 55.582031 240.84375 52.984375 240.867188 52.964844 L 240.871094 52.964844 C 244.402344 50.277344 244.582031 48.433594 244.570312 48.527344 L 244.582031 48.476562 L 244.589844 48.453125 C 245 47.4375 245.128906 45.933594 245.128906 44.488281 C 245.128906 42.472656 244.878906 40.664062 244.882812 40.667969 L 245.175781 40.625 L 244.882812 40.675781 C 244.09375 35.921875 240.152344 28.113281 240.144531 28.101562 L 240.410156 27.96875 L 240.152344 28.117188 C 238.546875 25.335938 238.128906 22.480469 238.128906 20.261719 C 238.128906 17.847656 238.625 16.175781 238.628906 16.160156 Z M 239.191406 16.320312 "/></clipPath><clipPath id="428a939996"><path d="M 0.3125 0.0195312 L 8.75 0.0195312 L 8.75 45 L 0.3125 45 Z M 0.3125 0.0195312 "/></clipPath><clipPath id="ac5fcda8d3"><path d="M 2.191406 0.320312 C 2.199219 0.304688 1.71875 1.917969 1.71875 4.257812 C 1.71875 6.40625 2.125 9.152344 3.664062 11.8125 L 3.667969 11.828125 C 3.664062 11.816406 7.65625 19.710938 8.464844 24.570312 L 8.464844 24.582031 C 8.464844 24.585938 8.71875 26.429688 8.71875 28.484375 C 8.71875 29.9375 8.59375 31.539062 8.136719 32.671875 L 7.863281 32.5625 L 8.15625 32.597656 C 8.144531 32.691406 7.867188 34.667969 4.226562 37.433594 L 4.046875 37.199219 L 4.226562 37.433594 C 4.195312 37.457031 1.042969 39.894531 1.042969 43.429688 C 1.042969 43.871094 1.09375 44.335938 1.203125 44.8125 L 0.628906 44.949219 C 0.503906 44.425781 0.449219 43.917969 0.449219 43.429688 C 0.449219 39.582031 3.84375 36.984375 3.867188 36.964844 L 3.871094 36.964844 C 7.402344 34.277344 7.582031 32.433594 7.570312 32.527344 L 7.582031 32.476562 L 7.589844 32.453125 C 8 31.4375 8.128906 29.933594 8.128906 28.488281 C 8.128906 26.472656 7.878906 24.664062 7.882812 24.667969 L 8.175781 24.625 L 7.882812 24.675781 C 7.09375 19.921875 3.152344 12.113281 3.144531 12.101562 L 3.410156 11.96875 L 3.152344 12.117188 C 1.546875 9.335938 1.128906 6.480469 1.128906 4.261719 C 1.128906 1.847656 1.625 0.175781 1.628906 0.160156 Z M 2.191406 0.320312 "/></clipPath><clipPath id="2435c23c92"><rect x="0" width="9" y="0" height="45"/></clipPath><clipPath id="a0c131cacd"><path d="M 240 17.144531 L 248 17.144531 L 248 59.699219 L 240 59.699219 Z M 240 17.144531 "/></clipPath><clipPath id="17efe94ad1"><path d="M 241.019531 17.382812 C 241.019531 17.382812 240.699219 18.414062 240.699219 19.949219 C 240.699219 21.152344 240.894531 22.660156 241.589844 24.230469 L 241.320312 24.347656 L 241.582031 24.210938 C 241.578125 24.203125 245.628906 31.925781 246.925781 37.417969 L 246.640625 37.484375 L 246.917969 37.390625 C 246.921875 37.398438 247.988281 40.496094 247.988281 44.007812 C 247.988281 46.261719 247.546875 48.726562 246.070312 50.65625 L 245.835938 50.476562 L 246.070312 50.65625 C 245.878906 50.910156 245.53125 51.210938 245.140625 51.558594 C 244.457031 52.164062 243.5625 52.957031 242.746094 54.019531 C 241.695312 55.390625 240.792969 57.207031 240.707031 59.605469 L 240.113281 59.582031 C 240.207031 57.035156 241.171875 55.105469 242.277344 53.660156 C 243.128906 52.546875 244.066406 51.71875 244.75 51.117188 C 245.160156 50.753906 245.453125 50.492188 245.601562 50.296875 C 246.96875 48.515625 247.398438 46.199219 247.398438 44.007812 C 247.398438 40.59375 246.359375 37.574219 246.359375 37.585938 L 246.355469 37.554688 C 245.078125 32.144531 241.066406 24.492188 241.0625 24.488281 L 241.050781 24.472656 C 240.316406 22.808594 240.105469 21.214844 240.105469 19.949219 C 240.105469 18.332031 240.445312 17.242188 240.457031 17.203125 Z M 241.019531 17.382812 "/></clipPath><clipPath id="d999e62ab6"><path d="M 0.105469 0.144531 L 8 0.144531 L 8 42.699219 L 0.105469 42.699219 Z M 0.105469 0.144531 "/></clipPath><clipPath id="bad2be73b4"><path d="M 1.019531 0.382812 C 1.019531 0.382812 0.699219 1.414062 0.699219 2.949219 C 0.699219 4.152344 0.894531 5.660156 1.589844 7.230469 L 1.320312 7.347656 L 1.582031 7.210938 C 1.578125 7.203125 5.628906 14.925781 6.925781 20.417969 L 6.640625 20.484375 L 6.917969 20.390625 C 6.921875 20.398438 7.988281 23.496094 7.988281 27.007812 C 7.988281 29.261719 7.546875 31.726562 6.070312 33.65625 L 5.835938 33.476562 L 6.070312 33.65625 C 5.878906 33.910156 5.53125 34.210938 5.140625 34.558594 C 4.457031 35.164062 3.5625 35.957031 2.746094 37.019531 C 1.695312 38.390625 0.792969 40.207031 0.707031 42.605469 L 0.113281 42.582031 C 0.207031 40.035156 1.171875 38.105469 2.277344 36.660156 C 3.128906 35.546875 4.066406 34.71875 4.75 34.117188 C 5.160156 33.753906 5.453125 33.492188 5.601562 33.296875 C 6.96875 31.515625 7.398438 29.199219 7.398438 27.007812 C 7.398438 23.59375 6.359375 20.574219 6.359375 20.585938 L 6.355469 20.554688 C 5.078125 15.144531 1.066406 7.492188 1.0625 7.488281 L 1.050781 7.472656 C 0.316406 5.808594 0.105469 4.214844 0.105469 2.949219 C 0.105469 1.332031 0.445312 0.242188 0.457031 0.203125 Z M 1.019531 0.382812 "/></clipPath><clipPath id="c9e46cf733"><rect x="0" width="8" y="0" height="43"/></clipPath><clipPath id="4e8f363d12"><path d="M 242.5625 18.457031 L 250.4375 18.457031 L 250.4375 57.640625 L 242.5625 57.640625 Z M 242.5625 18.457031 "/></clipPath><clipPath id="b2bf876ecb"><path d="M 242.824219 18.867188 L 242.824219 18.855469 L 242.671875 19.105469 L 243.046875 19.199219 C 243.414062 19.285156 243.492188 18.667969 243.398438 19 L 243.390625 19.03125 C 243.285156 19.472656 242.582031 22.933594 244.503906 26.125 L 244.507812 26.128906 C 244.496094 26.109375 249.867188 35.382812 250.179688 41.011719 L 249.882812 41.027344 L 250.175781 40.976562 C 250.179688 40.988281 250.308594 41.742188 250.308594 42.917969 C 250.308594 45.074219 249.871094 48.703125 247.332031 51.773438 C 247.113281 52.039062 246.785156 52.34375 246.433594 52.671875 C 245.945312 53.121094 245.386719 53.640625 244.894531 54.238281 C 244.128906 55.167969 243.550781 56.25 243.625 57.511719 L 243.035156 57.546875 C 242.945312 56.070312 243.628906 54.84375 244.4375 53.863281 C 244.957031 53.230469 245.546875 52.6875 246.03125 52.238281 C 246.394531 51.898438 246.6875 51.625 246.875 51.398438 L 247.101562 51.589844 L 246.875 51.398438 C 249.289062 48.476562 249.71875 45.011719 249.71875 42.917969 C 249.71875 41.789062 249.59375 41.070312 249.59375 41.082031 L 249.59375 41.046875 C 249.289062 35.589844 244.011719 26.449219 244 26.429688 L 244.253906 26.28125 L 244 26.433594 C 241.957031 23.035156 242.703125 19.382812 242.820312 18.894531 L 242.832031 18.855469 L 242.835938 18.839844 L 242.824219 18.539062 L 243.191406 18.628906 C 243.566406 18.722656 243.339844 19.324219 243.410156 18.988281 L 243.40625 19.003906 Z M 242.824219 18.867188 "/></clipPath><clipPath id="a3c51c1d50"><path d="M 0.5625 0.457031 L 8.394531 0.457031 L 8.394531 39.640625 L 0.5625 39.640625 Z M 0.5625 0.457031 "/></clipPath><clipPath id="fac4ef1345"><path d="M 0.824219 0.867188 L 0.824219 0.855469 L 0.671875 1.105469 L 1.046875 1.199219 C 1.414062 1.285156 1.492188 0.667969 1.398438 1 L 1.390625 1.03125 C 1.285156 1.472656 0.582031 4.933594 2.503906 8.125 L 2.507812 8.128906 C 2.496094 8.109375 7.867188 17.382812 8.179688 23.011719 L 7.882812 23.027344 L 8.175781 22.976562 C 8.179688 22.988281 8.308594 23.742188 8.308594 24.917969 C 8.308594 27.074219 7.871094 30.703125 5.332031 33.773438 C 5.113281 34.039062 4.785156 34.34375 4.433594 34.671875 C 3.945312 35.121094 3.386719 35.640625 2.894531 36.238281 C 2.128906 37.167969 1.550781 38.25 1.625 39.511719 L 1.035156 39.546875 C 0.945312 38.070312 1.628906 36.84375 2.4375 35.863281 C 2.957031 35.230469 3.546875 34.6875 4.03125 34.238281 C 4.394531 33.898438 4.6875 33.625 4.875 33.398438 L 5.101562 33.589844 L 4.875 33.398438 C 7.289062 30.476562 7.71875 27.011719 7.71875 24.917969 C 7.71875 23.789062 7.59375 23.070312 7.59375 23.082031 L 7.59375 23.046875 C 7.289062 17.589844 2.011719 8.449219 2 8.429688 L 2.253906 8.28125 L 2 8.433594 C -0.0429688 5.035156 0.703125 1.382812 0.820312 0.894531 L 0.832031 0.855469 L 0.835938 0.839844 L 0.824219 0.539062 L 1.191406 0.628906 C 1.566406 0.722656 1.339844 1.324219 1.410156 0.988281 L 1.40625 1.003906 Z M 0.824219 0.867188 "/></clipPath><clipPath id="af57d2c4b2"><rect x="0" width="9" y="0" height="40"/></clipPath><clipPath id="91c2401708"><path d="M 245 21 L 252.5 21 L 252.5 41.328125 L 245 41.328125 Z M 245 21 "/></clipPath><clipPath id="0f90025109"><path d="M 245.691406 21.039062 L 245.6875 21.078125 L 245.6875 21.15625 C 245.6875 21.824219 245.828125 25.292969 248.546875 29.730469 L 248.550781 29.734375 C 248.535156 29.710938 252.324219 36.121094 252.324219 40.261719 L 252.25 41.1875 L 251.667969 41.089844 C 251.710938 40.832031 251.730469 40.554688 251.730469 40.261719 C 251.730469 36.3125 248.054688 30.058594 248.042969 30.035156 L 248.296875 29.882812 L 248.046875 30.039062 C 245.257812 25.492188 245.101562 21.914062 245.101562 21.160156 L 245.101562 21.019531 Z M 245.691406 21.039062 "/></clipPath><clipPath id="1068fb9241"><path d="M 0 0 L 7.5 0 L 7.5 20.328125 L 0 20.328125 Z M 0 0 "/></clipPath><clipPath id="3c4d86dccc"><path d="M 0.691406 0.0390625 L 0.6875 0.078125 L 0.6875 0.15625 C 0.6875 0.824219 0.828125 4.292969 3.546875 8.730469 L 3.550781 8.734375 C 3.535156 8.710938 7.324219 15.121094 7.324219 19.261719 L 7.25 20.1875 L 6.667969 20.089844 C 6.710938 19.832031 6.730469 19.554688 6.730469 19.261719 C 6.730469 15.3125 3.054688 9.058594 3.042969 9.035156 L 3.296875 8.882812 L 3.046875 9.039062 C 0.257812 4.492188 0.101562 0.914062 0.101562 0.160156 L 0.101562 0.0195312 Z M 0.691406 0.0390625 "/></clipPath><clipPath id="98a24fe2dc"><rect x="0" width="8" y="0" height="21"/></clipPath><clipPath id="99ec77dc0a"><path d="M 228.503906 13.769531 L 237.3125 13.769531 L 237.3125 62.886719 L 228.503906 62.886719 Z M 228.503906 13.769531 "/></clipPath><clipPath id="4439f16f9c"><path d="M 231.140625 14.167969 C 231.140625 14.171875 229.195312 17.511719 229.195312 20.675781 C 229.195312 21.566406 229.347656 22.425781 229.730469 23.191406 L 229.742188 23.210938 L 229.746094 23.222656 C 229.742188 23.214844 231.496094 27.917969 234.820312 34.011719 L 234.824219 34.023438 C 234.828125 34.027344 237.144531 38.710938 237.144531 43.605469 C 237.144531 46.1875 236.496094 48.859375 234.496094 50.925781 L 234.476562 50.945312 C 234.445312 50.972656 229.324219 55.394531 229.324219 59.714844 C 229.324219 60.660156 229.570312 61.601562 230.175781 62.496094 L 229.6875 62.828125 C 229.007812 61.828125 228.730469 60.769531 228.730469 59.714844 C 228.730469 55.074219 234.117188 50.472656 234.085938 50.496094 L 234.28125 50.722656 L 234.070312 50.515625 C 235.929688 48.597656 236.550781 46.09375 236.550781 43.605469 C 236.550781 38.859375 234.292969 34.28125 234.292969 34.285156 L 234.558594 34.15625 L 234.296875 34.296875 C 230.957031 28.171875 229.191406 23.4375 229.191406 23.425781 L 229.46875 23.324219 L 229.203125 23.457031 C 228.769531 22.585938 228.605469 21.628906 228.605469 20.675781 C 228.605469 17.332031 230.632812 13.867188 230.628906 13.871094 Z M 231.140625 14.167969 "/></clipPath><clipPath id="f2656cfdfa"><path d="M 0.503906 0.863281 L 9.234375 0.863281 L 9.234375 49.886719 L 0.503906 49.886719 Z M 0.503906 0.863281 "/></clipPath><clipPath id="0b1b41b8f9"><path d="M 3.140625 1.167969 C 3.140625 1.171875 1.195312 4.511719 1.195312 7.675781 C 1.195312 8.566406 1.347656 9.425781 1.730469 10.191406 L 1.742188 10.210938 L 1.746094 10.222656 C 1.742188 10.214844 3.496094 14.917969 6.820312 21.011719 L 6.824219 21.023438 C 6.828125 21.027344 9.144531 25.710938 9.144531 30.605469 C 9.144531 33.1875 8.496094 35.859375 6.496094 37.925781 L 6.476562 37.945312 C 6.445312 37.972656 1.324219 42.394531 1.324219 46.714844 C 1.324219 47.660156 1.570312 48.601562 2.175781 49.496094 L 1.6875 49.828125 C 1.007812 48.828125 0.730469 47.769531 0.730469 46.714844 C 0.730469 42.074219 6.117188 37.472656 6.085938 37.496094 L 6.28125 37.722656 L 6.070312 37.515625 C 7.929688 35.597656 8.550781 33.09375 8.550781 30.605469 C 8.550781 25.859375 6.292969 21.28125 6.292969 21.285156 L 6.558594 21.15625 L 6.296875 21.296875 C 2.957031 15.171875 1.191406 10.4375 1.191406 10.425781 L 1.46875 10.324219 L 1.203125 10.457031 C 0.769531 9.585938 0.605469 8.628906 0.605469 7.675781 C 0.605469 4.332031 2.632812 0.867188 2.628906 0.871094 Z M 3.140625 1.167969 "/></clipPath><clipPath id="a67b599013"><rect x="0" width="10" y="0" height="50"/></clipPath><clipPath id="8b21fb3c27"><path d="M 230.753906 14.144531 L 239.375 14.144531 L 239.375 62.699219 L 230.753906 62.699219 Z M 230.753906 14.144531 "/></clipPath><clipPath id="d88aa2a4ed"><path d="M 233.46875 14.476562 C 233.476562 14.46875 231.851562 17.324219 231.851562 20.589844 C 231.851562 21.683594 232.035156 22.8125 232.515625 23.898438 L 232.519531 23.910156 C 232.519531 23.914062 234.878906 29.917969 236.632812 33.609375 L 236.363281 33.738281 L 236.632812 33.609375 C 236.632812 33.613281 239.253906 39.097656 239.253906 44.449219 C 239.253906 47.425781 238.445312 50.414062 235.859375 52.371094 L 235.683594 52.132812 L 235.859375 52.371094 C 234.667969 53.277344 233.3125 54.382812 232.058594 56.789062 L 232.054688 56.792969 C 232.050781 56.800781 231.480469 57.863281 231.480469 59.289062 C 231.480469 60.199219 231.714844 61.261719 232.480469 62.300781 L 232.003906 62.652344 C 231.152344 61.496094 230.890625 60.308594 230.890625 59.289062 C 230.890625 57.71875 231.511719 56.554688 231.535156 56.511719 L 231.796875 56.652344 L 231.535156 56.515625 C 232.84375 54 234.273438 52.832031 235.503906 51.898438 C 237.878906 50.097656 238.660156 47.332031 238.660156 44.449219 C 238.660156 39.246094 236.09375 33.863281 236.097656 33.863281 C 234.332031 30.148438 231.96875 24.125 231.96875 24.125 L 232.242188 24.019531 L 231.972656 24.136719 C 231.453125 22.960938 231.257812 21.746094 231.257812 20.589844 C 231.257812 17.160156 232.949219 14.191406 232.953125 14.179688 Z M 233.46875 14.476562 "/></clipPath><clipPath id="c718f802d4"><path d="M 0.773438 0.144531 L 9.375 0.144531 L 9.375 48.675781 L 0.773438 48.675781 Z M 0.773438 0.144531 "/></clipPath><clipPath id="bca211e2bf"><path d="M 3.46875 0.476562 C 3.476562 0.46875 1.851562 3.324219 1.851562 6.589844 C 1.851562 7.683594 2.035156 8.8125 2.515625 9.898438 L 2.519531 9.910156 C 2.519531 9.914062 4.878906 15.917969 6.632812 19.609375 L 6.363281 19.738281 L 6.632812 19.609375 C 6.632812 19.613281 9.253906 25.097656 9.253906 30.449219 C 9.253906 33.425781 8.445312 36.414062 5.859375 38.371094 L 5.683594 38.132812 L 5.859375 38.371094 C 4.667969 39.277344 3.3125 40.382812 2.058594 42.789062 L 2.054688 42.792969 C 2.050781 42.800781 1.480469 43.863281 1.480469 45.289062 C 1.480469 46.199219 1.714844 47.261719 2.480469 48.300781 L 2.003906 48.652344 C 1.152344 47.496094 0.890625 46.308594 0.890625 45.289062 C 0.890625 43.71875 1.511719 42.554688 1.535156 42.511719 L 1.796875 42.652344 L 1.535156 42.515625 C 2.84375 40 4.273438 38.832031 5.503906 37.898438 C 7.878906 36.097656 8.660156 33.332031 8.660156 30.449219 C 8.660156 25.246094 6.09375 19.863281 6.097656 19.863281 C 4.332031 16.148438 1.96875 10.125 1.96875 10.125 L 2.242188 10.019531 L 1.972656 10.136719 C 1.453125 8.960938 1.257812 7.746094 1.257812 6.589844 C 1.257812 3.160156 2.949219 0.191406 2.953125 0.179688 Z M 3.46875 0.476562 "/></clipPath><clipPath id="ed61b0e121"><rect x="0" width="10" y="0" height="49"/></clipPath><clipPath id="7ff026e0f5"><path d="M 233.191406 14.519531 L 241.0625 14.519531 L 241.0625 62.136719 L 233.191406 62.136719 Z M 233.191406 14.519531 "/></clipPath><clipPath id="11d1721193"><path d="M 235.402344 14.9375 C 235.398438 14.945312 233.957031 17.332031 233.957031 20.6875 C 233.957031 22.417969 234.339844 24.410156 235.507812 26.46875 L 235.25 26.613281 L 235.503906 26.457031 C 235.5 26.453125 241.007812 35.375 241.007812 43.632812 L 241.007812 43.703125 L 240.710938 43.734375 L 241.003906 43.703125 C 241.003906 43.710938 241.046875 44.089844 241.046875 44.695312 C 241.046875 46.347656 240.726562 49.839844 238.167969 51.96875 L 237.980469 51.742188 L 238.171875 51.96875 C 238.128906 52.003906 233.878906 55.605469 233.878906 58.53125 L 233.933594 59.085938 C 233.9375 59.109375 233.941406 59.136719 233.941406 59.160156 L 233.941406 59.171875 C 233.941406 59.285156 233.964844 60.101562 234.496094 61.960938 L 233.925781 62.125 C 233.378906 60.226562 233.347656 59.355469 233.347656 59.171875 L 233.347656 59.140625 L 233.644531 59.148438 L 233.355469 59.210938 C 233.308594 58.988281 233.285156 58.757812 233.285156 58.53125 C 233.285156 55.273438 237.832031 51.480469 237.789062 51.515625 C 240.128906 49.566406 240.457031 46.324219 240.457031 44.699219 C 240.457031 44.117188 240.414062 43.765625 240.414062 43.769531 L 240.414062 43.636719 C 240.414062 35.566406 235 26.777344 234.996094 26.769531 L 234.992188 26.761719 C 233.769531 24.605469 233.363281 22.511719 233.363281 20.6875 C 233.363281 17.179688 234.867188 14.679688 234.898438 14.632812 Z M 235.402344 14.9375 "/></clipPath><clipPath id="ded10f8344"><path d="M 0.191406 0.578125 L 8.0625 0.578125 L 8.0625 48.136719 L 0.191406 48.136719 Z M 0.191406 0.578125 "/></clipPath><clipPath id="57d2f52e56"><path d="M 2.402344 0.9375 C 2.398438 0.945312 0.957031 3.332031 0.957031 6.6875 C 0.957031 8.417969 1.339844 10.410156 2.507812 12.46875 L 2.25 12.613281 L 2.503906 12.457031 C 2.5 12.453125 8.007812 21.375 8.007812 29.632812 L 8.007812 29.703125 L 7.710938 29.734375 L 8.003906 29.703125 C 8.003906 29.710938 8.046875 30.089844 8.046875 30.695312 C 8.046875 32.347656 7.726562 35.839844 5.167969 37.96875 L 4.980469 37.742188 L 5.171875 37.96875 C 5.128906 38.003906 0.878906 41.605469 0.878906 44.53125 L 0.933594 45.085938 C 0.9375 45.109375 0.941406 45.136719 0.941406 45.160156 L 0.941406 45.171875 C 0.941406 45.285156 0.964844 46.101562 1.496094 47.960938 L 0.925781 48.125 C 0.378906 46.226562 0.347656 45.355469 0.347656 45.171875 L 0.347656 45.140625 L 0.644531 45.148438 L 0.355469 45.210938 C 0.308594 44.988281 0.285156 44.757812 0.285156 44.53125 C 0.285156 41.273438 4.832031 37.480469 4.789062 37.515625 C 7.128906 35.566406 7.457031 32.324219 7.457031 30.699219 C 7.457031 30.117188 7.414062 29.765625 7.414062 29.769531 L 7.414062 29.636719 C 7.414062 21.566406 2 12.777344 1.996094 12.769531 L 1.992188 12.761719 C 0.769531 10.605469 0.363281 8.511719 0.363281 6.6875 C 0.363281 3.179688 1.867188 0.679688 1.898438 0.632812 Z M 2.402344 0.9375 "/></clipPath><clipPath id="5908e65dd6"><rect x="0" width="9" y="0" height="49"/></clipPath><clipPath id="fb137203bf"><rect x="0" width="254" y="0" height="73"/></clipPath></defs><g id="db9544bdb4"><g clip-rule="nonzero" clip-path="url(#790af7d557)"><g transform="matrix(1,0,0,1,1,6)"><g clip-path="url(#fb137203bf)"><g clip-rule="nonzero" clip-path="url(#155934427a)"><g clip-rule="nonzero" clip-path="url(#6486989349)"><g transform="matrix(1,0,0,1,17,19)"><g id="d63d732c58" clip-path="url(#628fcb2c66)"><g clip-rule="nonzero" clip-path="url(#259bd33240)"><g clip-rule="nonzero" clip-path="url(#26285b9b4c)"><rect x="0" width="13" y="0" height="12" style="fill:#404141;fill-opacity:1;stroke:none;"/></g></g></g></g></g></g><g clip-rule="nonzero" clip-path="url(#fb19ed710e)"><g clip-rule="nonzero" clip-path="url(#a913f7d3fd)"><g transform="matrix(1,0,0,1,15,19)"><g id="9df243f783" clip-path="url(#358a19e349)"><g clip-rule="nonzero" clip-path="url(#1cb8108257)"><g clip-rule="nonzero" clip-path="url(#8543528d9d)"><rect x="0" width="13" y="0" height="8" style="fill:#404141;fill-opacity:1;stroke:none;"/></g></g></g></g></g></g><g clip-rule="nonzero" clip-path="url(#03d483d313)"><g clip-rule="nonzero" clip-path="url(#095af55e77)"><g transform="matrix(1,0,0,1,18,19)"><g id="2a64a1b62f" clip-path="url(#840e607e34)"><g clip-rule="nonzero" clip-path="url(#e688769f9c)"><g clip-rule="nonzero" clip-path="url(#29290b95c6)"><rect x="0" width="9" y="0" height="9" style="fill:#404141;fill-opacity:1;stroke:none;"/></g></g></g></g></g></g><g clip-rule="nonzero" clip-path="url(#511954eb38)"><g clip-rule="nonzero" clip-path="url(#d42a54d873)"><g transform="matrix(1,0,0,1,18,20)"><g id="c2d1d604e5" clip-path="url(#55171753cf)"><g clip-rule="nonzero" clip-path="url(#ce62862e95)"><g clip-rule="nonzero" clip-path="url(#5ef89e4af9)"><rect x="0" width="9" y="0" height="10" style="fill:#404141;fill-opacity:1;stroke:none;"/></g></g></g></g></g></g><g clip-rule="nonzero" clip-path="url(#f5c6f6f222)"><g clip-rule="nonzero" clip-path="url(#ab6ce56a6d)"><g transform="matrix(1,0,0,1,18,20)"><g id="1008b03f2c" clip-path="url(#8581996d99)"><g clip-rule="nonzero" clip-path="url(#bf6528bf4a)"><g clip-rule="nonzero" clip-path="url(#f227eadddb)"><rect x="0" width="8" y="0" height="11" style="fill:#404141;fill-opacity:1;stroke:none;"/></g></g></g></g></g></g><g clip-rule="nonzero" clip-path="url(#3c62e1f5f5)"><g clip-rule="nonzero" clip-path="url(#782dc5452a)"><g transform="matrix(1,0,0,1,18,20)"><g id="5322634ef8" clip-path="url(#cae5cb0271)"><g clip-rule="nonzero" clip-path="url(#c1dfdd2a4a)"><g clip-rule="nonzero" clip-path="url(#0d0f57bbef)"><rect x="0" width="7" y="0" height="11" style="fill:#404141;fill-opacity:1;stroke:none;"/></g></g></g></g></g></g><g clip-rule="nonzero" clip-path="url(#6773be5937)"><g clip-rule="nonzero" clip-path="url(#2cd12dbe47)"><g transform="matrix(1,0,0,1,25,20)"><g id="c2c1b179f6" clip-path="url(#d16dce81fe)"><g clip-rule="nonzero" clip-path="url(#4f440dbb8f)"><g clip-rule="nonzero" clip-path="url(#d16c260688)"><rect x="0" width="4" y="0" height="5" style="fill:#404141;fill-opacity:1;stroke:none;"/></g></g></g></g></g></g><g clip-rule="nonzero" clip-path="url(#621d8800f8)"><g clip-rule="nonzero" clip-path="url(#ccf515c4eb)"><g transform="matrix(1,0,0,1,31,19)"><g id="421b0b83d6" clip-path="url(#82a78bdf42)"><g clip-rule="nonzero" clip-path="url(#67492be7e2)"><g clip-rule="nonzero" clip-path="url(#4e7d4b36f2)"><rect x="0" width="38" y="0" height="39" style="fill:#404141;fill-opacity:1;stroke:none;"/></g></g></g></g></g></g><g clip-rule="nonzero" clip-path="url(#7e89a6f278)"><g clip-rule="nonzero" clip-path="url(#04e2cb9ecf)"><g transform="matrix(1,0,0,1,1,19)"><g id="e4ad76491e" clip-path="url(#825fde0eb8)"><g clip-rule="nonzero" clip-path="url(#e8262f0e07)"><g clip-rule="nonzero" clip-path="url(#595a0b1bb8)"><rect x="0" width="10" y="0" height="38" style="fill:#404141;fill-opacity:1;stroke:none;"/></g></g></g></g></g></g><g clip-rule="nonzero" clip-path="url(#f733d3e40d)"><g clip-rule="nonzero" clip-path="url(#8bfe283919)"><g transform="matrix(1,0,0,1,9,19)"><g id="8fe3ce6cc0" clip-path="url(#8fc5e4a149)"><g clip-rule="nonzero" clip-path="url(#16e7cad9a8)"><g clip-rule="nonzero" clip-path="url(#196b456d56)"><rect x="0" width="12" y="0" height="27" style="fill:#404141;fill-opacity:1;stroke:none;"/></g></g></g></g></g></g><g clip-rule="nonzero" clip-path="url(#d0c58d3f16)"><g clip-rule="nonzero" clip-path="url(#7a6895fa18)"><g transform="matrix(1,0,0,1,74,0.000000000000000888)"><g id="7132ba475f" clip-path="url(#3edfa2921b)"><g clip-rule="nonzero" clip-path="url(#9c17a1c59e)"><g clip-rule="nonzero" clip-path="url(#d4da0c96a2)"><path style=" stroke:none;fill-rule:nonzero;fill:#404141;fill-opacity:1;" d="M 0.417969 0.738281 L 26.070312 0.738281 L 26.070312 56.652344 L 0.417969 56.652344 Z M 0.417969 0.738281 "/></g></g></g></g></g></g><g clip-rule="nonzero" clip-path="url(#8b6d99dbe4)"><g clip-rule="nonzero" clip-path="url(#26e5aef756)"><g transform="matrix(1,0,0,1,103,19)"><g id="5b44a23c57" clip-path="url(#3ac88e75ba)"><g clip-rule="nonzero" clip-path="url(#c5b2764723)"><g clip-rule="nonzero" clip-path="url(#722bba6cda)"><path style=" stroke:none;fill-rule:nonzero;fill:#404141;fill-opacity:1;" d="M 0.167969 0.339844 L 36.285156 0.339844 L 36.285156 38.144531 L 0.167969 38.144531 Z M 0.167969 0.339844 "/></g></g></g></g></g></g><g clip-rule="nonzero" clip-path="url(#375a80dbe5)"><g clip-rule="nonzero" clip-path="url(#442c6a1290)"><g transform="matrix(1,0,0,1,144,17)"><g id="db4d5648cd" clip-path="url(#773b3cc8e8)"><g clip-rule="nonzero" clip-path="url(#1422f3a501)"><g clip-rule="nonzero" clip-path="url(#821e290ab3)"><rect x="0" width="48" y="0" height="54" style="fill:#404141;fill-opacity:1;stroke:none;"/></g></g></g></g></g></g><g clip-rule="nonzero" clip-path="url(#c74ecf5aa8)"><g clip-rule="nonzero" clip-path="url(#615d116ca8)"><g transform="matrix(1,0,0,1,192,5)"><g id="9b79bdabb7" clip-path="url(#4055a0929d)"><g clip-rule="nonzero" clip-path="url(#6b8a076d77)"><g clip-rule="nonzero" clip-path="url(#b6251292c6)"><rect x="0" width="10" y="0" height="52" style="fill:#404141;fill-opacity:1;stroke:none;"/></g></g></g></g></g></g><g clip-rule="nonzero" clip-path="url(#1405dcd10d)"><g clip-rule="nonzero" clip-path="url(#b7b0819777)"><g transform="matrix(1,0,0,1,206,19)"><g id="88620db47c" clip-path="url(#9223a69f45)"><g clip-rule="nonzero" clip-path="url(#edc092cf1a)"><g clip-rule="nonzero" clip-path="url(#b2a2e146c8)"><rect x="0" width="23" y="0" height="39" style="fill:#404141;fill-opacity:1;stroke:none;"/></g></g></g></g></g></g><g clip-rule="nonzero" clip-path="url(#80e8bb6cd6)"><g clip-rule="nonzero" clip-path="url(#389444d90b)"><g transform="matrix(1,0,0,1,226,13)"><g id="58345ce7f7" clip-path="url(#a752500e36)"><g clip-rule="nonzero" clip-path="url(#b326bf4388)"><g clip-rule="nonzero" clip-path="url(#7e13119475)"><rect x="0" width="27" y="0" height="50" style="fill:#404141;fill-opacity:1;stroke:none;"/></g></g></g></g></g></g><g clip-rule="nonzero" clip-path="url(#92f2b0e40b)"><g clip-rule="nonzero" clip-path="url(#247338bbc9)"><g transform="matrix(1,0,0,1,235,15)"><g id="d6201b848d" clip-path="url(#189b286a72)"><g clip-rule="nonzero" clip-path="url(#ca4fe658f1)"><g clip-rule="nonzero" clip-path="url(#7d95aa4386)"><rect x="0" width="9" y="0" height="47" style="fill:#404141;fill-opacity:1;stroke:none;"/></g></g></g></g></g></g><g clip-rule="nonzero" clip-path="url(#8ef1b11caf)"><g clip-rule="nonzero" clip-path="url(#35ade221e8)"><g transform="matrix(1,0,0,1,237,16)"><g id="a9ad083f70" clip-path="url(#2435c23c92)"><g clip-rule="nonzero" clip-path="url(#428a939996)"><g clip-rule="nonzero" clip-path="url(#ac5fcda8d3)"><rect x="0" width="9" y="0" height="45" style="fill:#404141;fill-opacity:1;stroke:none;"/></g></g></g></g></g></g><g clip-rule="nonzero" clip-path="url(#a0c131cacd)"><g clip-rule="nonzero" clip-path="url(#17efe94ad1)"><g transform="matrix(1,0,0,1,240,17)"><g id="1ade6a6d77" clip-path="url(#c9e46cf733)"><g clip-rule="nonzero" clip-path="url(#d999e62ab6)"><g clip-rule="nonzero" clip-path="url(#bad2be73b4)"><rect x="0" width="8" y="0" height="43" style="fill:#404141;fill-opacity:1;stroke:none;"/></g></g></g></g></g></g><g clip-rule="nonzero" clip-path="url(#4e8f363d12)"><g clip-rule="nonzero" clip-path="url(#b2bf876ecb)"><g transform="matrix(1,0,0,1,242,18)"><g id="1130e93eab" clip-path="url(#af57d2c4b2)"><g clip-rule="nonzero" clip-path="url(#a3c51c1d50)"><g clip-rule="nonzero" clip-path="url(#fac4ef1345)"><rect x="0" width="9" y="0" height="40" style="fill:#404141;fill-opacity:1;stroke:none;"/></g></g></g></g></g></g><g clip-rule="nonzero" clip-path="url(#91c2401708)"><g clip-rule="nonzero" clip-path="url(#0f90025109)"><g transform="matrix(1,0,0,1,245,21)"><g id="707bd2d525" clip-path="url(#98a24fe2dc)"><g clip-rule="nonzero" clip-path="url(#1068fb9241)"><g clip-rule="nonzero" clip-path="url(#3c4d86dccc)"><rect x="0" width="8" y="0" height="21" style="fill:#404141;fill-opacity:1;stroke:none;"/></g></g></g></g></g></g><g clip-rule="nonzero" clip-path="url(#99ec77dc0a)"><g clip-rule="nonzero" clip-path="url(#4439f16f9c)"><g transform="matrix(1,0,0,1,228,13)"><g id="ac94cd7173" clip-path="url(#a67b599013)"><g clip-rule="nonzero" clip-path="url(#f2656cfdfa)"><g clip-rule="nonzero" clip-path="url(#0b1b41b8f9)"><rect x="0" width="10" y="0" height="50" style="fill:#404141;fill-opacity:1;stroke:none;"/></g></g></g></g></g></g><g clip-rule="nonzero" clip-path="url(#8b21fb3c27)"><g clip-rule="nonzero" clip-path="url(#d88aa2a4ed)"><g transform="matrix(1,0,0,1,230,14)"><g id="500f7f3c59" clip-path="url(#ed61b0e121)"><g clip-rule="nonzero" clip-path="url(#c718f802d4)"><g clip-rule="nonzero" clip-path="url(#bca211e2bf)"><rect x="0" width="10" y="0" height="49" style="fill:#404141;fill-opacity:1;stroke:none;"/></g></g></g></g></g></g><g clip-rule="nonzero" clip-path="url(#7ff026e0f5)"><g clip-rule="nonzero" clip-path="url(#11d1721193)"><g transform="matrix(1,0,0,1,233,14)"><g id="a4df555043" clip-path="url(#5908e65dd6)"><g clip-rule="nonzero" clip-path="url(#ded10f8344)"><g clip-rule="nonzero" clip-path="url(#57d2f52e56)"><rect x="0" width="9" y="0" height="49" style="fill:#404141;fill-opacity:1;stroke:none;"/></g></g></g></g></g></g></g></g></g></g></svg>