<svg xmlns="http://www.w3.org/2000/svg" xmlns:xlink="http://www.w3.org/1999/xlink" width="340" zoomAndPan="magnify" viewBox="0 0 255 84.749999" height="113" preserveAspectRatio="xMidYMid meet" version="1.2"><defs><clipPath id="2c3b5a1d27"><path d="M 0.46875 0.09375 L 237.371094 0.09375 L 237.371094 66.617188 L 0.46875 66.617188 Z M 0.46875 0.09375 "/></clipPath><clipPath id="a8fd8f710b"><path d="M 29.582031 17.332031 L 64.890625 17.332031 L 64.890625 52.789062 L 29.582031 52.789062 Z M 29.582031 17.332031 "/></clipPath><clipPath id="7348a9d270"><path d="M 35.925781 28.316406 L 59.007812 28.316406 C 58.066406 22.023438 52.421875 16.957031 45.332031 18.332031 C 40.410156 19.269531 37.230469 23.394531 35.925781 28.316406 M 54.519531 28.894531 L 35.78125 28.894531 C 34.839844 32.726562 35.058594 37 36.289062 40.46875 C 38.964844 48.066406 44.390625 51.394531 51.769531 51.105469 C 57.992188 50.816406 63.417969 46.546875 64.140625 40.902344 C 65.011719 33.378906 60.019531 28.894531 54.519531 28.894531 M 64.792969 40.757812 C 64.359375 45.894531 59.800781 52.695312 49.527344 52.695312 C 39.542969 52.695312 29.921875 47.777344 29.632812 35.839844 C 29.269531 23.324219 40.628906 17.894531 48.585938 17.460938 C 54.738281 17.171875 63.203125 20.140625 64.214844 28.894531 L 57.488281 28.894531 C 61.609375 29.980469 65.371094 34.175781 64.792969 40.757812 "/></clipPath><clipPath id="9c68a2d1d1"><path d="M 0.582031 0.332031 L 35.890625 0.332031 L 35.890625 35.738281 L 0.582031 35.738281 Z M 0.582031 0.332031 "/></clipPath><clipPath id="91f23ffcb1"><path d="M 6.925781 11.316406 L 30.007812 11.316406 C 29.066406 5.023438 23.421875 -0.0429688 16.332031 1.332031 C 11.410156 2.269531 8.230469 6.394531 6.925781 11.316406 M 25.519531 11.894531 L 6.78125 11.894531 C 5.839844 15.726562 6.058594 20 7.289062 23.46875 C 9.964844 31.066406 15.390625 34.394531 22.769531 34.105469 C 28.992188 33.816406 34.417969 29.546875 35.140625 23.902344 C 36.011719 16.378906 31.019531 11.894531 25.519531 11.894531 M 35.792969 23.757812 C 35.359375 28.894531 30.800781 35.695312 20.527344 35.695312 C 10.542969 35.695312 0.921875 30.777344 0.632812 18.839844 C 0.269531 6.324219 11.628906 0.894531 19.585938 0.460938 C 25.738281 0.171875 34.203125 3.140625 35.214844 11.894531 L 28.488281 11.894531 C 32.609375 12.980469 36.371094 17.175781 35.792969 23.757812 "/></clipPath><clipPath id="4f1a3957a7"><rect x="0" width="36" y="0" height="36"/></clipPath><clipPath id="9b0b5462c0"><path d="M 1.597656 17.332031 L 10.683594 17.332031 L 10.683594 52.347656 L 1.597656 52.347656 Z M 1.597656 17.332031 "/></clipPath><clipPath id="fd62ec2672"><path d="M 9.066406 44.671875 L 9.066406 47.492188 C 9.066406 50.027344 9.574219 51.109375 10.660156 51.761719 L 10.660156 52.269531 L 1.6875 52.269531 L 1.6875 51.761719 C 2.847656 51.109375 3.351562 50.027344 3.351562 47.492188 L 3.351562 23.039062 C 3.351562 20.507812 3.136719 19.785156 1.6875 19.566406 L 1.6875 19.0625 L 8.488281 17.46875 L 9.066406 17.46875 L 9.066406 36.859375 "/></clipPath><clipPath id="1be54a060c"><path d="M 0.664062 0.332031 L 9.683594 0.332031 L 9.683594 35.347656 L 0.664062 35.347656 Z M 0.664062 0.332031 "/></clipPath><clipPath id="953297fe61"><path d="M 8.066406 27.671875 L 8.066406 30.492188 C 8.066406 33.027344 8.574219 34.109375 9.660156 34.761719 L 9.660156 35.269531 L 0.6875 35.269531 L 0.6875 34.761719 C 1.847656 34.109375 2.351562 33.027344 2.351562 30.492188 L 2.351562 6.039062 C 2.351562 3.507812 2.136719 2.785156 0.6875 2.566406 L 0.6875 2.0625 L 7.488281 0.46875 L 8.066406 0.46875 L 8.066406 19.859375 "/></clipPath><clipPath id="10e3b4166a"><rect x="0" width="10" y="0" height="36"/></clipPath><clipPath id="cf033d6627"><path d="M 9 17.476562 L 19.621094 17.476562 L 19.621094 42.09375 L 9 42.09375 Z M 9 17.476562 "/></clipPath><clipPath id="a2f108b13b"><path d="M 19.527344 17.902344 L 19.316406 17.625 L 17.304688 17.972656 L 17.382812 17.726562 C 17.382812 17.726562 10.128906 18.625 9.015625 37.113281 L 9.09375 42.078125 C 9.09375 42.078125 9.265625 20.628906 17.050781 18.730469 L 17.167969 18.382812 Z M 19.527344 17.902344 "/></clipPath><clipPath id="1538eaca19"><path d="M 0 0.5625 L 10.613281 0.5625 L 10.613281 25.09375 L 0 25.09375 Z M 0 0.5625 "/></clipPath><clipPath id="79e14bf590"><path d="M 10.527344 0.902344 L 10.316406 0.625 L 8.304688 0.972656 L 8.382812 0.726562 C 8.382812 0.726562 1.128906 1.625 0.015625 20.113281 L 0.09375 25.078125 C 0.09375 25.078125 0.265625 3.628906 8.050781 1.730469 L 8.167969 1.382812 Z M 10.527344 0.902344 "/></clipPath><clipPath id="e6cca43fcb"><rect x="0" width="11" y="0" height="26"/></clipPath><clipPath id="d9caab6cd8"><path d="M 16.6875 17.332031 L 28.117188 17.332031 L 28.117188 28 L 16.6875 28 Z M 16.6875 17.332031 "/></clipPath><clipPath id="05c2957120"><path d="M 19.4375 17.425781 C 19.4375 17.425781 17.597656 17.503906 17.050781 17.882812 C 16.503906 18.261719 17.050781 18.730469 17.050781 18.730469 L 17.628906 18.6875 C 21.15625 18.6875 22.992188 23.710938 23.128906 27.628906 L 23.636719 27.914062 L 28.050781 21.695312 C 25.589844 18.800781 23.34375 17.425781 19.4375 17.425781 M 19.449219 17.867188 C 22.867188 17.871094 25.007812 18.886719 27.488281 21.722656 L 23.554688 27.265625 C 23.300781 22.828125 21.183594 18.242188 17.625 18.242188 L 17.296875 18.25 C 17.601562 18.035156 18.757812 17.894531 19.449219 17.867188 "/></clipPath><clipPath id="ae8c2f806f"><path d="M 0.6875 0.332031 L 12.117188 0.332031 L 12.117188 11 L 0.6875 11 Z M 0.6875 0.332031 "/></clipPath><clipPath id="bfebe6feca"><path d="M 3.4375 0.425781 C 3.4375 0.425781 1.597656 0.503906 1.050781 0.882812 C 0.503906 1.261719 1.050781 1.730469 1.050781 1.730469 L 1.628906 1.6875 C 5.15625 1.6875 6.992188 6.710938 7.128906 10.628906 L 7.636719 10.914062 L 12.050781 4.695312 C 9.589844 1.800781 7.34375 0.425781 3.4375 0.425781 M 3.449219 0.867188 C 6.867188 0.871094 9.007812 1.886719 11.488281 4.722656 L 7.554688 10.265625 C 7.300781 5.828125 5.183594 1.242188 1.625 1.242188 L 1.296875 1.25 C 1.601562 1.035156 2.757812 0.894531 3.449219 0.867188 "/></clipPath><clipPath id="3fa7d5b9a6"><rect x="0" width="13" y="0" height="11"/></clipPath><clipPath id="95a09171dd"><path d="M 15.222656 17.625 L 26.503906 17.625 L 26.503906 23.925781 L 15.222656 23.925781 Z M 15.222656 17.625 "/></clipPath><clipPath id="52da5290a4"><path d="M 15.320312 18.832031 C 15.324219 18.828125 17.785156 17.738281 20.390625 17.738281 C 23.132812 17.738281 26.042969 18.953125 26.445312 23.824219 L 26.117188 23.851562 C 25.734375 19.1875 22.996094 18.070312 20.390625 18.070312 C 17.859375 18.070312 15.453125 19.136719 15.457031 19.136719 Z M 15.320312 18.832031 "/></clipPath><clipPath id="b8d6a3d96d"><path d="M 0.304688 0.625 L 11.503906 0.625 L 11.503906 6.925781 L 0.304688 6.925781 Z M 0.304688 0.625 "/></clipPath><clipPath id="5d90663dd6"><path d="M 0.320312 1.832031 C 0.324219 1.828125 2.785156 0.738281 5.390625 0.738281 C 8.132812 0.738281 11.042969 1.953125 11.445312 6.824219 L 11.117188 6.851562 C 10.734375 2.1875 7.996094 1.070312 5.390625 1.070312 C 2.859375 1.070312 0.453125 2.136719 0.457031 2.136719 Z M 0.320312 1.832031 "/></clipPath><clipPath id="137f2ee861"><rect x="0" width="12" y="0" height="7"/></clipPath><clipPath id="5ae99e604e"><path d="M 17.273438 17.917969 L 25.625 17.917969 L 25.625 25.390625 L 17.273438 25.390625 Z M 17.273438 17.917969 "/></clipPath><clipPath id="3ef20786d2"><path d="M 17.367188 18.011719 C 23.84375 17.421875 25.34375 20.609375 25.558594 22.980469 C 25.675781 24.257812 25.421875 25.277344 25.417969 25.285156 L 25.097656 25.207031 C 25.097656 25.214844 25.339844 24.238281 25.230469 23.011719 C 25.03125 20.820312 23.6875 17.769531 17.398438 18.34375 Z M 17.367188 18.011719 "/></clipPath><clipPath id="7cac57d10c"><path d="M 0.273438 0.917969 L 8.625 0.917969 L 8.625 8.390625 L 0.273438 8.390625 Z M 0.273438 0.917969 "/></clipPath><clipPath id="409f028d30"><path d="M 0.367188 1.011719 C 6.84375 0.421875 8.34375 3.609375 8.558594 5.980469 C 8.675781 7.257812 8.421875 8.277344 8.417969 8.285156 L 8.097656 8.207031 C 8.097656 8.214844 8.339844 7.238281 8.230469 6.011719 C 8.03125 3.820312 6.6875 0.769531 0.398438 1.34375 Z M 0.367188 1.011719 "/></clipPath><clipPath id="c75704a1e7"><rect x="0" width="9" y="0" height="9"/></clipPath><clipPath id="9c8c96c0be"><path d="M 17.421875 18.0625 L 24.894531 18.0625 L 24.894531 27 L 17.421875 27 Z M 17.421875 18.0625 "/></clipPath><clipPath id="339eb5980e"><path d="M 24.023438 26.820312 C 24.019531 26.828125 24.53125 25.457031 24.53125 23.820312 C 24.53125 21.421875 23.441406 18.421875 17.8125 18.421875 L 17.613281 18.421875 L 17.503906 18.09375 L 17.710938 18.089844 L 17.8125 18.089844 C 23.648438 18.089844 24.863281 21.261719 24.863281 23.820312 C 24.863281 25.515625 24.335938 26.929688 24.332031 26.9375 Z M 24.023438 26.820312 "/></clipPath><clipPath id="bf7727362d"><path d="M 0.457031 0.0625 L 7.875 0.0625 L 7.875 9 L 0.457031 9 Z M 0.457031 0.0625 "/></clipPath><clipPath id="7bd3b0bca8"><path d="M 7.023438 8.820312 C 7.019531 8.828125 7.53125 7.457031 7.53125 5.820312 C 7.53125 3.421875 6.441406 0.421875 0.8125 0.421875 L 0.613281 0.421875 L 0.503906 0.09375 L 0.710938 0.0898438 L 0.8125 0.0898438 C 6.648438 0.0898438 7.863281 3.261719 7.863281 5.820312 C 7.863281 7.515625 7.335938 8.929688 7.332031 8.9375 Z M 7.023438 8.820312 "/></clipPath><clipPath id="3bcc68581b"><rect x="0" width="8" y="0" height="9"/></clipPath><clipPath id="7e7bc1fdcb"><path d="M 17.273438 18.210938 L 24.160156 18.210938 L 24.160156 27.734375 L 17.273438 27.734375 Z M 17.273438 18.210938 "/></clipPath><clipPath id="aa4eba4639"><path d="M 23.730469 27.550781 L 23.808594 27.398438 L 23.59375 27.363281 L 23.355469 27.632812 L 23.40625 27.472656 C 23.417969 27.445312 23.488281 27.183594 23.566406 26.757812 C 23.917969 24.761719 24.292969 19.617188 19.109375 18.695312 C 18.59375 18.605469 18.019531 18.550781 17.382812 18.550781 L 17.382812 18.21875 C 18.035156 18.222656 18.628906 18.273438 19.164062 18.371094 C 24.6875 19.355469 24.238281 24.863281 23.886719 26.820312 C 23.8125 27.25 23.738281 27.527344 23.722656 27.574219 L 23.722656 27.722656 L 23.53125 27.691406 L 23.429688 27.320312 Z M 23.730469 27.550781 "/></clipPath><clipPath id="ee72735999"><path d="M 0.273438 0.210938 L 7.160156 0.210938 L 7.160156 9.734375 L 0.273438 9.734375 Z M 0.273438 0.210938 "/></clipPath><clipPath id="835b63ccdb"><path d="M 6.730469 9.550781 L 6.808594 9.398438 L 6.59375 9.363281 L 6.355469 9.632812 L 6.40625 9.472656 C 6.417969 9.445312 6.488281 9.183594 6.566406 8.757812 C 6.917969 6.761719 7.292969 1.617188 2.109375 0.695312 C 1.59375 0.605469 1.019531 0.550781 0.382812 0.550781 L 0.382812 0.21875 C 1.035156 0.222656 1.628906 0.273438 2.164062 0.371094 C 7.6875 1.355469 7.238281 6.863281 6.886719 8.820312 C 6.8125 9.25 6.738281 9.527344 6.722656 9.574219 L 6.722656 9.722656 L 6.53125 9.691406 L 6.429688 9.320312 Z M 6.730469 9.550781 "/></clipPath><clipPath id="72d06be663"><rect x="0" width="8" y="0" height="10"/></clipPath><clipPath id="662164f3ea"><path d="M 17.273438 18.210938 L 23.722656 18.210938 L 23.722656 27.734375 L 17.273438 27.734375 Z M 17.273438 18.210938 "/></clipPath><clipPath id="1e5d0b3a69"><path d="M 23.511719 27.554688 L 23.539062 27.726562 L 23.324219 27.691406 L 23.214844 27.304688 L 23.1875 27.5 C 23.234375 27.164062 24.226562 19.699219 18.140625 18.644531 L 17.375 18.550781 L 17.402344 18.21875 C 17.679688 18.242188 17.941406 18.273438 18.195312 18.316406 C 24.644531 19.433594 23.550781 27.3125 23.519531 27.542969 L 23.519531 27.546875 L 23.589844 27.398438 L 23.382812 27.363281 L 23.15625 27.707031 L 23.191406 27.5 Z M 23.511719 27.554688 "/></clipPath><clipPath id="1e79d0ef3a"><path d="M 0.273438 0.210938 L 6.722656 0.210938 L 6.722656 9.734375 L 0.273438 9.734375 Z M 0.273438 0.210938 "/></clipPath><clipPath id="dbebac5922"><path d="M 6.511719 9.554688 L 6.539062 9.726562 L 6.324219 9.691406 L 6.214844 9.304688 L 6.1875 9.5 C 6.234375 9.164062 7.226562 1.699219 1.140625 0.644531 L 0.375 0.550781 L 0.402344 0.21875 C 0.679688 0.242188 0.941406 0.273438 1.195312 0.316406 C 7.644531 1.433594 6.550781 9.3125 6.519531 9.542969 L 6.519531 9.546875 L 6.589844 9.398438 L 6.382812 9.363281 L 6.15625 9.707031 L 6.191406 9.5 Z M 6.511719 9.554688 "/></clipPath><clipPath id="eb4ed7aa74"><rect x="0" width="7" y="0" height="10"/></clipPath><clipPath id="e4d6815336"><path d="M 23.867188 18.503906 L 27.238281 18.503906 L 27.238281 22.753906 L 23.867188 22.753906 Z M 23.867188 18.503906 "/></clipPath><clipPath id="e84f65baa6"><path d="M 26.796875 22.683594 C 26.796875 22.683594 26.539062 19.886719 23.996094 18.828125 L 24.125 18.519531 C 26.859375 19.660156 27.128906 22.652344 27.128906 22.652344 Z M 26.796875 22.683594 "/></clipPath><clipPath id="6e84029961"><path d="M 0.917969 0.519531 L 4.238281 0.519531 L 4.238281 4.753906 L 0.917969 4.753906 Z M 0.917969 0.519531 "/></clipPath><clipPath id="f5e08422a9"><path d="M 3.796875 4.683594 C 3.796875 4.683594 3.539062 1.886719 0.996094 0.828125 L 1.125 0.519531 C 3.859375 1.660156 4.128906 4.652344 4.128906 4.652344 Z M 3.796875 4.683594 "/></clipPath><clipPath id="c1d1f3513a"><rect x="0" width="5" y="0" height="5"/></clipPath><clipPath id="e346da2c01"><path d="M 69.929688 0.0976562 L 93.878906 0.0976562 L 93.878906 52.296875 L 69.929688 52.296875 Z M 69.929688 0.0976562 "/></clipPath><clipPath id="df76daab52"><path d="M 79.914062 18.042969 L 79.914062 47.488281 C 79.914062 50.019531 80.421875 51.105469 81.507812 51.757812 L 81.507812 52.265625 L 72.609375 52.265625 L 72.609375 51.757812 C 73.695312 51.105469 74.199219 50.019531 74.199219 47.488281 L 74.199219 23.828125 C 74.199219 19.921875 72.753906 18.042969 69.929688 18.042969 L 69.929688 17.460938 L 80.566406 17.460938 C 76.226562 17.246094 70.222656 13.699219 70.222656 8.851562 C 70.222656 3.933594 74.199219 0.0976562 81.363281 0.0976562 C 84.476562 0.0976562 88.164062 0.894531 90.769531 2.777344 L 89.683594 10.371094 L 89.175781 10.371094 C 87.441406 5.960938 82.738281 -1.132812 77.890625 1.113281 C 75.429688 2.195312 74.5625 6.03125 75.210938 9.9375 C 75.71875 13.046875 78.035156 17.460938 83.894531 17.460938 L 93.878906 17.460938 L 93.878906 18.039062 Z M 79.914062 18.042969 "/></clipPath><clipPath id="24568a5f2b"><path d="M 0.929688 0.0976562 L 24.878906 0.0976562 L 24.878906 52.296875 L 0.929688 52.296875 Z M 0.929688 0.0976562 "/></clipPath><clipPath id="83f30758eb"><path d="M 10.914062 18.042969 L 10.914062 47.488281 C 10.914062 50.019531 11.421875 51.105469 12.507812 51.757812 L 12.507812 52.265625 L 3.609375 52.265625 L 3.609375 51.757812 C 4.695312 51.105469 5.199219 50.019531 5.199219 47.488281 L 5.199219 23.828125 C 5.199219 19.921875 3.753906 18.042969 0.929688 18.042969 L 0.929688 17.460938 L 11.566406 17.460938 C 7.226562 17.246094 1.222656 13.699219 1.222656 8.851562 C 1.222656 3.933594 5.199219 0.0976562 12.363281 0.0976562 C 15.476562 0.0976562 19.164062 0.894531 21.769531 2.777344 L 20.683594 10.371094 L 20.175781 10.371094 C 18.441406 5.960938 13.738281 -1.132812 8.890625 1.113281 C 6.429688 2.195312 5.5625 6.03125 6.210938 9.9375 C 6.71875 13.046875 9.035156 17.460938 14.894531 17.460938 L 24.878906 17.460938 L 24.878906 18.039062 Z M 10.914062 18.042969 "/></clipPath><clipPath id="6349cdaa70"><rect x="0" width="25" y="0" height="53"/></clipPath><clipPath id="e320a4704f"><path d="M 96.773438 17.460938 L 130.621094 17.460938 L 130.621094 52.757812 L 96.773438 52.757812 Z M 96.773438 17.460938 "/></clipPath><clipPath id="92fca9233d"><path d="M 130.488281 52.261719 L 123.109375 52.261719 L 123.109375 34.683594 C 122.167969 42.859375 119.707031 52.699219 110.300781 52.699219 C 103.644531 52.699219 98.363281 48.503906 98.363281 39.964844 L 98.363281 23.03125 C 98.363281 20.5 98.148438 19.777344 96.773438 19.5625 L 96.773438 19.054688 L 103.574219 17.460938 L 104.078125 17.460938 L 104.078125 41.046875 C 104.078125 47.339844 107.335938 52.550781 113.558594 51.394531 C 121.660156 49.800781 123.109375 34.679688 123.109375 28.601562 L 123.109375 23.03125 C 123.109375 20.5 122.890625 19.777344 121.515625 19.5625 L 121.515625 19.054688 L 128.316406 17.460938 L 128.824219 17.460938 L 128.824219 47.488281 C 128.824219 50.019531 129.332031 51.105469 130.488281 51.757812 Z M 130.488281 52.261719 "/></clipPath><clipPath id="dd1fea7b1b"><path d="M 0.773438 0.460938 L 34.621094 0.460938 L 34.621094 35.738281 L 0.773438 35.738281 Z M 0.773438 0.460938 "/></clipPath><clipPath id="af7e72c7ce"><path d="M 34.488281 35.261719 L 27.109375 35.261719 L 27.109375 17.683594 C 26.167969 25.859375 23.707031 35.699219 14.300781 35.699219 C 7.644531 35.699219 2.363281 31.503906 2.363281 22.964844 L 2.363281 6.03125 C 2.363281 3.5 2.148438 2.777344 0.773438 2.5625 L 0.773438 2.054688 L 7.574219 0.460938 L 8.078125 0.460938 L 8.078125 24.046875 C 8.078125 30.339844 11.335938 35.550781 17.558594 34.394531 C 25.660156 32.800781 27.109375 17.679688 27.109375 11.601562 L 27.109375 6.03125 C 27.109375 3.5 26.890625 2.777344 25.515625 2.5625 L 25.515625 2.054688 L 32.316406 0.460938 L 32.824219 0.460938 L 32.824219 30.488281 C 32.824219 33.019531 33.332031 34.105469 34.488281 34.757812 Z M 34.488281 35.261719 "/></clipPath><clipPath id="dbb9a682d5"><rect x="0" width="35" y="0" height="36"/></clipPath><clipPath id="fa29b19192"><path d="M 135.519531 15.371094 L 179.238281 15.371094 L 179.238281 65.371094 L 135.519531 65.371094 Z M 135.519531 15.371094 "/></clipPath><clipPath id="b06b8a5e62"><path d="M 171.003906 51.753906 C 168.761719 52.046875 164.128906 55.15625 159.933594 57.761719 L 156.675781 59.714844 C 158.054688 61.738281 160.292969 64.707031 165.648438 64.777344 C 171.21875 64.851562 174.328125 61.886719 174.617188 57.109375 C 174.765625 53.78125 173.894531 51.324219 171.003906 51.753906 M 159.28125 51.394531 C 167.457031 49.003906 169.773438 39.964844 167.242188 31.207031 C 164.710938 22.527344 157.910156 16.378906 149.664062 18.765625 C 141.414062 21.152344 139.171875 30.195312 141.703125 38.949219 C 144.234375 47.632812 151.035156 53.855469 159.28125 51.394531 M 179.035156 55.878906 C 179.035156 61.59375 171.800781 65.285156 165.652344 65.285156 C 160.441406 65.285156 157.910156 62.464844 156.171875 60.078125 C 152.84375 62.101562 149.226562 63.984375 145.828125 64.199219 C 141.992188 64.492188 139.097656 63.117188 139.027344 59.785156 C 138.882812 55.371094 145.828125 52.984375 150.894531 52.480469 C 142.425781 51.46875 135.550781 45.824219 135.550781 36.636719 C 135.550781 24.699219 145.535156 17.460938 155.230469 17.460938 C 158.125 17.460938 160.875 18.039062 163.335938 19.054688 L 175.707031 15.4375 L 176.140625 19.054688 L 164.492188 19.5625 C 169.699219 22.09375 173.316406 26.941406 173.316406 33.523438 C 173.316406 45.101562 163.40625 52.699219 153.640625 52.699219 C 153.421875 52.699219 153.203125 52.699219 152.914062 52.625 C 148.140625 52.84375 142.570312 54.507812 142.929688 58.847656 C 143.078125 61.238281 144.304688 62.972656 146.984375 62.972656 C 150.675781 63.046875 154.867188 60.222656 159.5 57.402344 C 164.851562 54.21875 169.339844 50.457031 173.03125 50.3125 C 177.371094 50.238281 179.035156 52.699219 179.035156 55.882812 "/></clipPath><clipPath id="b147aad15f"><path d="M 0.519531 0.40625 L 44.222656 0.40625 L 44.222656 50.371094 L 0.519531 50.371094 Z M 0.519531 0.40625 "/></clipPath><clipPath id="ce0f556e91"><path d="M 36.003906 36.753906 C 33.761719 37.046875 29.128906 40.15625 24.933594 42.761719 L 21.675781 44.714844 C 23.054688 46.738281 25.292969 49.707031 30.648438 49.777344 C 36.21875 49.851562 39.328125 46.886719 39.617188 42.109375 C 39.765625 38.78125 38.894531 36.324219 36.003906 36.753906 M 24.28125 36.394531 C 32.457031 34.003906 34.773438 24.964844 32.242188 16.207031 C 29.710938 7.527344 22.910156 1.378906 14.664062 3.765625 C 6.414062 6.152344 4.171875 15.195312 6.703125 23.949219 C 9.234375 32.632812 16.035156 38.855469 24.28125 36.394531 M 44.035156 40.878906 C 44.035156 46.59375 36.800781 50.285156 30.652344 50.285156 C 25.441406 50.285156 22.910156 47.464844 21.171875 45.078125 C 17.84375 47.101562 14.226562 48.984375 10.828125 49.199219 C 6.992188 49.492188 4.097656 48.117188 4.027344 44.785156 C 3.882812 40.371094 10.828125 37.984375 15.894531 37.480469 C 7.425781 36.46875 0.550781 30.824219 0.550781 21.636719 C 0.550781 9.699219 10.535156 2.460938 20.230469 2.460938 C 23.125 2.460938 25.875 3.039062 28.335938 4.054688 L 40.707031 0.4375 L 41.140625 4.054688 L 29.492188 4.5625 C 34.699219 7.09375 38.316406 11.941406 38.316406 18.523438 C 38.316406 30.101562 28.40625 37.699219 18.640625 37.699219 C 18.421875 37.699219 18.203125 37.699219 17.914062 37.625 C 13.140625 37.84375 7.570312 39.507812 7.929688 43.847656 C 8.078125 46.238281 9.304688 47.972656 11.984375 47.972656 C 15.675781 48.046875 19.867188 45.222656 24.5 42.402344 C 29.851562 39.21875 34.339844 35.457031 38.03125 35.3125 C 42.371094 35.238281 44.035156 37.699219 44.035156 40.882812 "/></clipPath><clipPath id="2095d0a737"><rect x="0" width="45" y="0" height="51"/></clipPath><clipPath id="e1cd8a6b7d"><path d="M 179.671875 4.765625 L 188.761719 4.765625 L 188.761719 52.382812 L 179.671875 52.382812 Z M 179.671875 4.765625 "/></clipPath><clipPath id="4962d30d9f"><path d="M 180.625 8.203125 C 180.625 6.320312 182.144531 4.800781 184.023438 4.800781 C 185.90625 4.800781 187.425781 6.320312 187.425781 8.203125 C 187.425781 10.082031 185.90625 11.601562 184.023438 11.601562 C 182.144531 11.601562 180.625 10.082031 180.625 8.203125 M 188.726562 51.753906 L 188.726562 52.261719 L 179.757812 52.261719 L 179.757812 51.753906 C 180.84375 51.105469 181.351562 50.019531 181.351562 47.488281 L 181.351562 23.03125 C 181.351562 20.5 181.132812 19.777344 179.757812 19.5625 L 179.757812 19.054688 L 186.558594 17.460938 L 187.066406 17.460938 L 187.066406 47.488281 C 187.066406 50.019531 187.574219 51.105469 188.730469 51.757812 "/></clipPath><clipPath id="d8a69a30a5"><path d="M 0.699219 0.765625 L 9.761719 0.765625 L 9.761719 48.382812 L 0.699219 48.382812 Z M 0.699219 0.765625 "/></clipPath><clipPath id="516914f8b5"><path d="M 1.625 4.203125 C 1.625 2.320312 3.144531 0.800781 5.023438 0.800781 C 6.90625 0.800781 8.425781 2.320312 8.425781 4.203125 C 8.425781 6.082031 6.90625 7.601562 5.023438 7.601562 C 3.144531 7.601562 1.625 6.082031 1.625 4.203125 M 9.726562 47.753906 L 9.726562 48.261719 L 0.757812 48.261719 L 0.757812 47.753906 C 1.84375 47.105469 2.351562 46.019531 2.351562 43.488281 L 2.351562 19.03125 C 2.351562 16.5 2.132812 15.777344 0.757812 15.5625 L 0.757812 15.054688 L 7.558594 13.460938 L 8.066406 13.460938 L 8.066406 43.488281 C 8.066406 46.019531 8.574219 47.105469 9.730469 47.757812 "/></clipPath><clipPath id="4c6c387245"><rect x="0" width="10" y="0" height="49"/></clipPath><clipPath id="8232982e79"><path d="M 193.472656 17.386719 L 213.578125 17.386719 L 213.578125 52.871094 L 193.472656 52.871094 Z M 193.472656 17.386719 "/></clipPath><clipPath id="eb526e2edf"><path d="M 213.453125 52 C 206.9375 51.890625 201.769531 46.316406 199.632812 38.988281 C 197.097656 30.21875 199.34375 21.15625 207.609375 18.765625 C 209.210938 18.300781 210.761719 18.160156 212.238281 18.296875 L 212.308594 17.480469 C 202.882812 17.902344 193.542969 25.070312 193.542969 36.667969 C 193.542969 46.820312 201.878906 52.761719 211.667969 52.761719 L 213.039062 52.707031 C 213.167969 52.472656 213.304688 52.234375 213.453125 52 "/></clipPath><clipPath id="334aa99653"><path d="M 0.472656 0.386719 L 20.578125 0.386719 L 20.578125 35.871094 L 0.472656 35.871094 Z M 0.472656 0.386719 "/></clipPath><clipPath id="66116472de"><path d="M 20.453125 35 C 13.9375 34.890625 8.769531 29.316406 6.632812 21.988281 C 4.097656 13.21875 6.34375 4.15625 14.609375 1.765625 C 16.210938 1.300781 17.761719 1.160156 19.238281 1.296875 L 19.308594 0.480469 C 9.882812 0.902344 0.542969 8.070312 0.542969 19.667969 C 0.542969 29.820312 8.878906 35.761719 18.667969 35.761719 L 20.039062 35.707031 C 20.167969 35.472656 20.304688 35.234375 20.453125 35 "/></clipPath><clipPath id="dee704f089"><rect x="0" width="21" y="0" height="36"/></clipPath><clipPath id="83e9b2ec85"><path d="M 212.003906 12.140625 L 236.125 12.140625 L 236.125 58.289062 L 212.003906 58.289062 Z M 212.003906 12.140625 "/></clipPath><clipPath id="aebc432c76"><path d="M 214.507812 12.214844 C 226.425781 12.214844 236.058594 22.511719 236.058594 35.179688 L 235.835938 35.179688 L 236.058594 35.179688 C 236.058594 47.847656 226.425781 58.140625 214.507812 58.140625 C 212.996094 58.140625 212.695312 57.238281 212.476562 56.566406 L 212.453125 56.488281 C 212.1875 55.683594 211.976562 54.367188 212.800781 52.789062 L 212.996094 52.890625 L 212.800781 52.789062 C 213.726562 51.011719 215.457031 48.890625 215.996094 48.335938 L 216.15625 48.492188 L 215.996094 48.335938 C 218.820312 45.449219 219.257812 43.417969 219.355469 42.046875 L 219.382812 41.664062 C 219.394531 41.527344 219.40625 41.382812 219.414062 41.238281 C 219.488281 40.203125 219.539062 39 219.296875 37.703125 L 219.515625 37.660156 L 219.296875 37.703125 C 218.671875 34.34375 217.269531 31.691406 216.527344 30.285156 L 216.238281 29.722656 L 216.433594 29.625 L 216.238281 29.722656 C 215.792969 28.839844 215.375 28.03125 214.984375 27.277344 L 214.03125 25.417969 C 212.996094 23.351562 212.277344 21.640625 212.097656 19.78125 L 212.320312 19.761719 L 212.097656 19.78125 C 211.808594 16.746094 213.015625 13.980469 213.308594 13.4375 L 213.5 13.542969 L 213.308594 13.4375 L 213.417969 13.230469 C 213.640625 12.8125 213.785156 12.542969 213.925781 12.359375 L 214.101562 12.496094 L 213.921875 12.359375 L 214.058594 12.242188 L 214.140625 12.226562 L 214.304688 12.214844 L 214.457031 12.214844 L 214.507812 12.4375 L 214.507812 12.214844 M 214.507812 12.65625 L 214.234375 12.65625 L 214.265625 12.644531 L 214.28125 12.625 C 214.167969 12.773438 214.042969 13 213.8125 13.433594 L 213.699219 13.644531 C 213.429688 14.144531 212.265625 16.824219 212.542969 19.734375 C 212.714844 21.507812 213.398438 23.15625 214.429688 25.21875 L 215.382812 27.070312 C 215.773438 27.828125 216.195312 28.640625 216.636719 29.523438 L 216.925781 30.078125 C 217.671875 31.484375 219.097656 34.191406 219.738281 37.617188 C 219.988281 38.972656 219.9375 40.222656 219.859375 41.265625 L 219.828125 41.695312 C 219.816406 41.828125 219.808594 41.953125 219.800781 42.078125 L 219.578125 42.0625 L 219.800781 42.078125 C 219.695312 43.558594 219.210938 45.683594 216.316406 48.644531 C 215.800781 49.175781 214.097656 51.261719 213.195312 52.992188 C 212.445312 54.433594 212.636719 55.621094 212.875 56.351562 L 212.667969 56.417969 L 212.875 56.351562 L 212.902344 56.429688 C 213.109375 57.058594 213.308594 57.695312 214.511719 57.695312 C 226.160156 57.695312 235.621094 47.628906 235.621094 35.175781 C 235.621094 22.726562 226.152344 12.65625 214.507812 12.65625 Z M 214.507812 12.65625 "/></clipPath><clipPath id="77900ca07d"><path d="M 0.00390625 0.140625 L 24.125 0.140625 L 24.125 46.242188 L 0.00390625 46.242188 Z M 0.00390625 0.140625 "/></clipPath><clipPath id="ea77f2505d"><path d="M 2.507812 0.214844 C 14.425781 0.214844 24.058594 10.511719 24.058594 23.179688 L 23.835938 23.179688 L 24.058594 23.179688 C 24.058594 35.847656 14.425781 46.140625 2.507812 46.140625 C 0.996094 46.140625 0.695312 45.238281 0.476562 44.566406 L 0.453125 44.488281 C 0.1875 43.683594 -0.0234375 42.367188 0.800781 40.789062 L 0.996094 40.890625 L 0.800781 40.789062 C 1.726562 39.011719 3.457031 36.890625 3.996094 36.335938 L 4.15625 36.492188 L 3.996094 36.335938 C 6.820312 33.449219 7.257812 31.417969 7.355469 30.046875 L 7.382812 29.664062 C 7.394531 29.527344 7.40625 29.382812 7.414062 29.238281 C 7.488281 28.203125 7.539062 27 7.296875 25.703125 L 7.515625 25.660156 L 7.296875 25.703125 C 6.671875 22.34375 5.269531 19.691406 4.527344 18.285156 L 4.238281 17.722656 L 4.433594 17.625 L 4.238281 17.722656 C 3.792969 16.839844 3.375 16.03125 2.984375 15.277344 L 2.03125 13.417969 C 0.996094 11.351562 0.277344 9.640625 0.0976562 7.78125 L 0.320312 7.761719 L 0.0976562 7.78125 C -0.191406 4.746094 1.015625 1.980469 1.308594 1.4375 L 1.5 1.542969 L 1.308594 1.4375 L 1.417969 1.230469 C 1.640625 0.8125 1.785156 0.542969 1.925781 0.359375 L 2.101562 0.496094 L 1.921875 0.359375 L 2.058594 0.242188 L 2.140625 0.226562 L 2.304688 0.214844 L 2.457031 0.214844 L 2.507812 0.4375 L 2.507812 0.214844 M 2.507812 0.65625 L 2.234375 0.65625 L 2.265625 0.644531 L 2.28125 0.625 C 2.167969 0.773438 2.042969 1 1.8125 1.433594 L 1.699219 1.644531 C 1.429688 2.144531 0.265625 4.824219 0.542969 7.734375 C 0.714844 9.507812 1.398438 11.15625 2.429688 13.21875 L 3.382812 15.070312 C 3.773438 15.828125 4.195312 16.640625 4.636719 17.523438 L 4.925781 18.078125 C 5.671875 19.484375 7.097656 22.191406 7.738281 25.617188 C 7.988281 26.972656 7.9375 28.222656 7.859375 29.265625 L 7.828125 29.695312 C 7.816406 29.828125 7.808594 29.953125 7.800781 30.078125 L 7.578125 30.0625 L 7.800781 30.078125 C 7.695312 31.558594 7.210938 33.683594 4.316406 36.644531 C 3.800781 37.175781 2.097656 39.261719 1.195312 40.992188 C 0.445312 42.433594 0.636719 43.621094 0.875 44.351562 L 0.667969 44.417969 L 0.875 44.351562 L 0.902344 44.429688 C 1.109375 45.058594 1.308594 45.695312 2.511719 45.695312 C 14.160156 45.695312 23.621094 35.628906 23.621094 23.175781 C 23.621094 10.726562 14.152344 0.65625 2.507812 0.65625 Z M 2.507812 0.65625 "/></clipPath><clipPath id="523af5fcfd"><rect x="0" width="25" y="0" height="47"/></clipPath><clipPath id="5005730ff8"><path d="M 220.21875 13.539062 L 227.5625 13.539062 L 227.5625 57 L 220.21875 57 Z M 220.21875 13.539062 "/></clipPath><clipPath id="c03456ebf1"><path d="M 221.855469 13.859375 C 221.859375 13.851562 220.941406 15.917969 220.941406 18.648438 C 220.941406 20.132812 221.214844 21.808594 222.050781 23.449219 L 221.855469 23.546875 L 222.050781 23.445312 C 222.03125 23.410156 227.15625 33.128906 227.214844 36.082031 L 226.992188 36.085938 L 227.210938 36.058594 C 227.210938 36.058594 227.515625 38.25 227.515625 40.652344 C 227.515625 42.554688 227.324219 44.652344 226.609375 45.886719 C 225.902344 47.101562 224.773438 48.15625 222.902344 49.894531 L 222.71875 50.0625 L 222.476562 49.988281 L 222.625 50.148438 C 222.167969 50.578125 220.09375 52.59375 220.960938 56.882812 L 220.527344 56.972656 C 219.621094 52.472656 221.804688 50.3125 222.324219 49.828125 L 222.601562 49.570312 C 224.492188 47.8125 225.566406 46.808594 226.226562 45.664062 L 226.417969 45.777344 L 226.226562 45.664062 C 226.878906 44.542969 227.070312 42.5625 227.070312 40.652344 C 227.070312 38.28125 226.773438 36.117188 226.773438 36.117188 L 226.773438 36.089844 C 226.714844 33.273438 221.675781 23.6875 221.65625 23.652344 L 221.65625 23.648438 C 220.78125 21.933594 220.5 20.183594 220.5 18.644531 C 220.5 15.828125 221.441406 13.695312 221.449219 13.679688 Z M 221.855469 13.859375 "/></clipPath><clipPath id="248c8e4517"><path d="M 0.21875 0.539062 L 7.558594 0.539062 L 7.558594 44 L 0.21875 44 Z M 0.21875 0.539062 "/></clipPath><clipPath id="9b712d3aa3"><path d="M 1.855469 0.859375 C 1.859375 0.851562 0.941406 2.917969 0.941406 5.648438 C 0.941406 7.132812 1.214844 8.808594 2.050781 10.449219 L 1.855469 10.546875 L 2.050781 10.445312 C 2.03125 10.410156 7.15625 20.128906 7.214844 23.082031 L 6.992188 23.085938 L 7.210938 23.058594 C 7.210938 23.058594 7.515625 25.25 7.515625 27.652344 C 7.515625 29.554688 7.324219 31.652344 6.609375 32.886719 C 5.902344 34.101562 4.773438 35.15625 2.902344 36.894531 L 2.71875 37.0625 L 2.476562 36.988281 L 2.625 37.148438 C 2.167969 37.578125 0.09375 39.59375 0.960938 43.882812 L 0.527344 43.972656 C -0.378906 39.472656 1.804688 37.3125 2.324219 36.828125 L 2.601562 36.570312 C 4.492188 34.8125 5.566406 33.808594 6.226562 32.664062 L 6.417969 32.777344 L 6.226562 32.664062 C 6.878906 31.542969 7.070312 29.5625 7.070312 27.652344 C 7.070312 25.28125 6.773438 23.117188 6.773438 23.117188 L 6.773438 23.089844 C 6.714844 20.273438 1.675781 10.6875 1.65625 10.652344 L 1.65625 10.648438 C 0.78125 8.933594 0.5 7.183594 0.5 5.644531 C 0.5 2.828125 1.441406 0.695312 1.449219 0.679688 Z M 1.855469 0.859375 "/></clipPath><clipPath id="281e5b9b39"><rect x="0" width="8" y="0" height="44"/></clipPath><clipPath id="9c8ad9d184"><path d="M 222.140625 14.414062 L 229.832031 14.414062 L 229.832031 56.367188 L 222.140625 56.367188 Z M 222.140625 14.414062 "/></clipPath><clipPath id="668ed7d7e8"><path d="M 223.703125 14.628906 C 223.710938 14.617188 223.261719 16.128906 223.261719 18.320312 C 223.261719 20.332031 223.636719 22.90625 225.082031 25.402344 L 225.085938 25.40625 L 225.085938 25.410156 C 225.082031 25.402344 228.804688 32.765625 229.554688 37.292969 L 229.554688 37.296875 C 229.554688 37.300781 229.792969 39.019531 229.792969 40.933594 C 229.792969 42.289062 229.675781 43.777344 229.253906 44.820312 L 229.050781 44.738281 L 229.269531 44.765625 C 229.257812 44.835938 229.007812 46.667969 225.621094 49.242188 L 225.488281 49.066406 L 225.621094 49.242188 C 225.621094 49.246094 222.625 51.542969 222.625 54.882812 C 222.625 55.300781 222.671875 55.738281 222.777344 56.1875 L 222.347656 56.289062 C 222.234375 55.804688 222.183594 55.335938 222.183594 54.882812 C 222.183594 51.304688 225.355469 48.886719 225.351562 48.890625 C 228.660156 46.375 228.832031 44.640625 228.828125 44.710938 L 228.832031 44.679688 L 228.84375 44.652344 C 229.230469 43.695312 229.347656 42.28125 229.347656 40.933594 C 229.347656 39.050781 229.117188 37.351562 229.117188 37.355469 L 229.335938 37.328125 L 229.117188 37.363281 C 228.378906 32.917969 224.691406 25.617188 224.6875 25.609375 L 224.882812 25.507812 L 224.691406 25.621094 C 223.199219 23.039062 222.8125 20.378906 222.8125 18.316406 C 222.8125 16.070312 223.273438 14.511719 223.277344 14.503906 Z M 223.703125 14.628906 "/></clipPath><clipPath id="3672565c39"><path d="M 0.140625 0.449219 L 7.832031 0.449219 L 7.832031 42.328125 L 0.140625 42.328125 Z M 0.140625 0.449219 "/></clipPath><clipPath id="58d1d05fd2"><path d="M 1.703125 0.628906 C 1.710938 0.617188 1.261719 2.128906 1.261719 4.320312 C 1.261719 6.332031 1.636719 8.90625 3.082031 11.402344 L 3.085938 11.40625 L 3.085938 11.410156 C 3.082031 11.402344 6.804688 18.765625 7.554688 23.292969 L 7.554688 23.296875 C 7.554688 23.300781 7.792969 25.019531 7.792969 26.933594 C 7.792969 28.289062 7.675781 29.777344 7.253906 30.820312 L 7.050781 30.738281 L 7.269531 30.765625 C 7.257812 30.835938 7.007812 32.667969 3.621094 35.242188 L 3.488281 35.066406 L 3.621094 35.242188 C 3.621094 35.246094 0.625 37.542969 0.625 40.882812 C 0.625 41.300781 0.671875 41.738281 0.777344 42.1875 L 0.347656 42.289062 C 0.234375 41.804688 0.183594 41.335938 0.183594 40.882812 C 0.183594 37.304688 3.355469 34.886719 3.351562 34.890625 C 6.660156 32.375 6.832031 30.640625 6.828125 30.710938 L 6.832031 30.679688 L 6.84375 30.652344 C 7.230469 29.695312 7.347656 28.28125 7.347656 26.933594 C 7.347656 25.050781 7.117188 23.351562 7.117188 23.355469 L 7.335938 23.328125 L 7.117188 23.363281 C 6.378906 18.917969 2.691406 11.617188 2.6875 11.609375 L 2.882812 11.507812 L 2.691406 11.621094 C 1.199219 9.039062 0.8125 6.378906 0.8125 4.316406 C 0.8125 2.070312 1.273438 0.511719 1.277344 0.503906 Z M 1.703125 0.628906 "/></clipPath><clipPath id="79a7a85457"><rect x="0" width="8" y="0" height="43"/></clipPath><clipPath id="2b613cd043"><path d="M 224.589844 15.460938 L 231.929688 15.460938 L 231.929688 55.144531 L 224.589844 55.144531 Z M 224.589844 15.460938 "/></clipPath><clipPath id="cf4f1db229"><path d="M 225.414062 15.617188 C 225.417969 15.605469 225.109375 16.574219 225.109375 18.035156 C 225.109375 19.164062 225.292969 20.578125 225.949219 22.050781 L 225.746094 22.140625 L 225.945312 22.039062 C 225.941406 22.035156 229.71875 29.234375 230.925781 34.355469 L 230.714844 34.40625 L 230.921875 34.335938 C 230.925781 34.34375 231.917969 37.226562 231.917969 40.496094 C 231.917969 42.59375 231.507812 44.882812 230.136719 46.671875 L 229.960938 46.539062 L 230.136719 46.671875 C 229.960938 46.902344 229.644531 47.179688 229.273438 47.507812 C 228.640625 48.070312 227.796875 48.816406 227.035156 49.8125 C 226.050781 51.101562 225.199219 52.804688 225.117188 55.054688 L 224.671875 55.039062 C 224.761719 52.675781 225.652344 50.886719 226.679688 49.542969 C 227.472656 48.507812 228.347656 47.738281 228.980469 47.175781 C 229.363281 46.835938 229.640625 46.589844 229.785156 46.402344 C 231.070312 44.722656 231.472656 42.546875 231.472656 40.496094 C 231.472656 37.300781 230.5 34.476562 230.503906 34.480469 L 230.5 34.46875 L 230.496094 34.460938 C 229.304688 29.398438 225.554688 22.25 225.550781 22.246094 L 225.546875 22.242188 L 225.542969 22.234375 C 224.859375 20.691406 224.667969 19.210938 224.667969 18.035156 C 224.667969 16.519531 224.988281 15.5 224.992188 15.488281 Z M 225.414062 15.617188 "/></clipPath><clipPath id="b7660b720f"><path d="M 0.589844 0.460938 L 7.929688 0.460938 L 7.929688 40.128906 L 0.589844 40.128906 Z M 0.589844 0.460938 "/></clipPath><clipPath id="5960df261d"><path d="M 1.414062 0.617188 C 1.417969 0.605469 1.109375 1.574219 1.109375 3.035156 C 1.109375 4.164062 1.292969 5.578125 1.949219 7.050781 L 1.746094 7.140625 L 1.945312 7.039062 C 1.941406 7.035156 5.71875 14.234375 6.925781 19.355469 L 6.714844 19.40625 L 6.921875 19.335938 C 6.925781 19.34375 7.917969 22.226562 7.917969 25.496094 C 7.917969 27.59375 7.507812 29.882812 6.136719 31.671875 L 5.960938 31.539062 L 6.136719 31.671875 C 5.960938 31.902344 5.644531 32.179688 5.273438 32.507812 C 4.640625 33.070312 3.796875 33.816406 3.035156 34.8125 C 2.050781 36.101562 1.199219 37.804688 1.117188 40.054688 L 0.671875 40.039062 C 0.761719 37.675781 1.652344 35.886719 2.679688 34.542969 C 3.472656 33.507812 4.347656 32.738281 4.980469 32.175781 C 5.363281 31.835938 5.640625 31.589844 5.785156 31.402344 C 7.070312 29.722656 7.472656 27.546875 7.472656 25.496094 C 7.472656 22.300781 6.5 19.476562 6.503906 19.480469 L 6.5 19.46875 L 6.496094 19.460938 C 5.304688 14.398438 1.554688 7.25 1.550781 7.246094 L 1.546875 7.242188 L 1.542969 7.234375 C 0.859375 5.691406 0.667969 4.210938 0.667969 3.035156 C 0.667969 1.519531 0.988281 0.5 0.992188 0.488281 Z M 1.414062 0.617188 "/></clipPath><clipPath id="c7663a8529"><rect x="0" width="8" y="0" height="41"/></clipPath><clipPath id="36d0888107"><path d="M 226.863281 16.6875 L 234.203125 16.6875 L 234.203125 53.21875 L 226.863281 53.21875 Z M 226.863281 16.6875 "/></clipPath><clipPath id="6c6d9ed75c"><path d="M 227.199219 17.035156 L 227.203125 17.023438 L 227.089844 17.210938 L 227.367188 17.28125 C 227.640625 17.347656 227.703125 16.886719 227.632812 17.132812 L 227.628906 17.144531 L 227.625 17.164062 C 227.523438 17.578125 226.867188 20.828125 228.671875 23.824219 L 228.671875 23.828125 C 228.660156 23.808594 233.667969 32.457031 233.957031 37.695312 L 233.734375 37.707031 L 233.953125 37.671875 C 233.957031 37.679688 234.078125 38.378906 234.078125 39.472656 C 234.078125 41.480469 233.667969 44.847656 231.308594 47.707031 C 231.109375 47.949219 230.804688 48.230469 230.472656 48.535156 C 230.019531 48.957031 229.496094 49.445312 229.03125 50.003906 C 228.3125 50.875 227.761719 51.898438 227.832031 53.101562 L 227.390625 53.125 C 227.308594 51.765625 227.941406 50.632812 228.691406 49.722656 C 229.175781 49.136719 229.71875 48.632812 230.171875 48.210938 C 230.511719 47.898438 230.789062 47.640625 230.96875 47.425781 L 231.136719 47.566406 L 230.96875 47.425781 C 233.230469 44.679688 233.632812 41.433594 233.632812 39.472656 C 233.632812 38.410156 233.515625 37.738281 233.515625 37.746094 L 233.515625 37.71875 C 233.234375 32.609375 228.296875 24.0625 228.285156 24.046875 L 228.476562 23.933594 L 228.289062 24.046875 C 226.394531 20.898438 227.082031 17.503906 227.191406 17.054688 L 227.199219 17.015625 L 227.207031 17.003906 L 227.199219 16.777344 L 227.472656 16.847656 C 227.75 16.914062 227.582031 17.359375 227.632812 17.113281 L 227.632812 17.128906 Z M 227.199219 17.035156 "/></clipPath><clipPath id="a35324f770"><path d="M 0.863281 0.6875 L 8.203125 0.6875 L 8.203125 37.214844 L 0.863281 37.214844 Z M 0.863281 0.6875 "/></clipPath><clipPath id="14ce6d780f"><path d="M 1.199219 1.035156 L 1.203125 1.023438 L 1.089844 1.210938 L 1.367188 1.28125 C 1.640625 1.347656 1.703125 0.886719 1.632812 1.132812 L 1.628906 1.144531 L 1.625 1.164062 C 1.523438 1.578125 0.867188 4.828125 2.671875 7.824219 L 2.671875 7.828125 C 2.660156 7.808594 7.667969 16.457031 7.957031 21.695312 L 7.734375 21.707031 L 7.953125 21.671875 C 7.957031 21.679688 8.078125 22.378906 8.078125 23.472656 C 8.078125 25.480469 7.667969 28.847656 5.308594 31.707031 C 5.109375 31.949219 4.804688 32.230469 4.472656 32.535156 C 4.019531 32.957031 3.496094 33.445312 3.03125 34.003906 C 2.3125 34.875 1.761719 35.898438 1.832031 37.101562 L 1.390625 37.125 C 1.308594 35.765625 1.941406 34.632812 2.691406 33.722656 C 3.175781 33.136719 3.71875 32.632812 4.171875 32.210938 C 4.511719 31.898438 4.789062 31.640625 4.96875 31.425781 L 5.136719 31.566406 L 4.96875 31.425781 C 7.230469 28.679688 7.632812 25.433594 7.632812 23.472656 C 7.632812 22.410156 7.515625 21.738281 7.515625 21.746094 L 7.515625 21.71875 C 7.234375 16.609375 2.296875 8.0625 2.285156 8.046875 L 2.476562 7.933594 L 2.289062 8.046875 C 0.394531 4.898438 1.082031 1.503906 1.191406 1.054688 L 1.199219 1.015625 L 1.207031 1.003906 L 1.199219 0.777344 L 1.472656 0.847656 C 1.75 0.914062 1.582031 1.359375 1.632812 1.113281 L 1.632812 1.128906 Z M 1.199219 1.035156 "/></clipPath><clipPath id="e026496993"><rect x="0" width="9" y="0" height="38"/></clipPath><clipPath id="64acd60e98"><path d="M 229.308594 19 L 236 19 L 236 38 L 229.308594 38 Z M 229.308594 19 "/></clipPath><clipPath id="e305410c20"><path d="M 229.769531 19.050781 L 229.769531 19.164062 C 229.769531 19.796875 229.902344 23.042969 232.445312 27.191406 L 232.445312 27.195312 C 232.433594 27.179688 235.960938 33.148438 235.960938 36.996094 L 235.894531 37.851562 L 235.457031 37.78125 C 235.496094 37.535156 235.519531 37.273438 235.519531 36.996094 C 235.519531 33.292969 232.074219 27.4375 232.0625 27.417969 L 232.253906 27.304688 L 232.066406 27.421875 C 229.46875 23.1875 229.324219 19.859375 229.324219 19.160156 L 229.328125 19.03125 Z M 229.769531 19.050781 "/></clipPath><clipPath id="d44863685d"><path d="M 0.308594 0 L 7 0 L 7 18.902344 L 0.308594 18.902344 Z M 0.308594 0 "/></clipPath><clipPath id="26c74bfc48"><path d="M 0.769531 0.0507812 L 0.769531 0.164062 C 0.769531 0.796875 0.902344 4.042969 3.445312 8.191406 L 3.445312 8.195312 C 3.433594 8.179688 6.960938 14.148438 6.960938 17.996094 L 6.894531 18.851562 L 6.457031 18.78125 C 6.496094 18.535156 6.519531 18.273438 6.519531 17.996094 C 6.519531 14.292969 3.074219 8.4375 3.0625 8.417969 L 3.253906 8.304688 L 3.066406 8.421875 C 0.46875 4.1875 0.324219 0.859375 0.324219 0.160156 L 0.328125 0.03125 Z M 0.769531 0.0507812 "/></clipPath><clipPath id="87ec80f1fb"><rect x="0" width="7" y="0" height="19"/></clipPath><clipPath id="8077347110"><path d="M 213.75 12.316406 L 221.792969 12.316406 L 221.792969 58.113281 L 213.75 58.113281 Z M 213.75 12.316406 "/></clipPath><clipPath id="f43eca4bd6"><path d="M 216.195312 12.609375 C 216.195312 12.613281 214.371094 15.742188 214.371094 18.714844 C 214.371094 19.550781 214.515625 20.363281 214.878906 21.085938 L 214.886719 21.109375 C 214.882812 21.101562 216.523438 25.5 219.625 31.191406 L 219.628906 31.195312 L 219.628906 31.199219 C 219.632812 31.203125 221.789062 35.566406 221.789062 40.121094 C 221.789062 42.523438 221.1875 45.003906 219.332031 46.917969 L 219.316406 46.933594 C 219.28125 46.964844 214.488281 51.105469 214.488281 55.160156 C 214.488281 56.054688 214.722656 56.945312 215.292969 57.789062 L 214.929688 58.035156 C 214.300781 57.113281 214.042969 56.136719 214.042969 55.160156 C 214.042969 50.863281 219.035156 46.589844 219.027344 46.597656 L 219.171875 46.765625 L 219.015625 46.613281 C 220.765625 44.804688 221.347656 42.453125 221.347656 40.121094 C 221.347656 35.675781 219.234375 31.390625 219.234375 31.394531 L 219.429688 31.296875 L 219.238281 31.402344 C 216.117188 25.6875 214.472656 21.269531 214.46875 21.265625 L 214.679688 21.1875 L 214.480469 21.285156 C 214.078125 20.484375 213.925781 19.597656 213.925781 18.714844 C 213.925781 15.613281 215.808594 12.386719 215.808594 12.390625 Z M 216.195312 12.609375 "/></clipPath><clipPath id="bb211b95af"><path d="M 0.917969 0.316406 L 8.792969 0.316406 L 8.792969 46.113281 L 0.917969 46.113281 Z M 0.917969 0.316406 "/></clipPath><clipPath id="29c46ff89a"><path d="M 3.195312 0.609375 C 3.195312 0.613281 1.371094 3.742188 1.371094 6.714844 C 1.371094 7.550781 1.515625 8.363281 1.878906 9.085938 L 1.886719 9.109375 C 1.882812 9.101562 3.523438 13.5 6.625 19.191406 L 6.628906 19.195312 L 6.628906 19.199219 C 6.632812 19.203125 8.789062 23.566406 8.789062 28.121094 C 8.789062 30.523438 8.1875 33.003906 6.332031 34.917969 L 6.316406 34.933594 C 6.28125 34.964844 1.488281 39.105469 1.488281 43.160156 C 1.488281 44.054688 1.722656 44.945312 2.292969 45.789062 L 1.929688 46.035156 C 1.300781 45.113281 1.042969 44.136719 1.042969 43.160156 C 1.042969 38.863281 6.035156 34.589844 6.027344 34.597656 L 6.171875 34.765625 L 6.015625 34.613281 C 7.765625 32.804688 8.347656 30.453125 8.347656 28.121094 C 8.347656 23.675781 6.234375 19.390625 6.234375 19.394531 L 6.429688 19.296875 L 6.238281 19.402344 C 3.117188 13.6875 1.472656 9.269531 1.46875 9.265625 L 1.679688 9.1875 L 1.480469 9.285156 C 1.078125 8.484375 0.925781 7.597656 0.925781 6.714844 C 0.925781 3.613281 2.808594 0.386719 2.808594 0.390625 Z M 3.195312 0.609375 "/></clipPath><clipPath id="a227ce6b3b"><rect x="0" width="9" y="0" height="47"/></clipPath><clipPath id="81f68bc73a"><path d="M 216.023438 12.664062 L 223.890625 12.664062 L 223.890625 57.941406 L 216.023438 57.941406 Z M 216.023438 12.664062 "/></clipPath><clipPath id="a6a59d0301"><path d="M 218.367188 12.898438 C 218.371094 12.890625 216.847656 15.566406 216.847656 18.632812 C 216.847656 19.660156 217.019531 20.722656 217.472656 21.746094 L 217.472656 21.75 L 217.476562 21.753906 C 217.476562 21.753906 219.675781 27.363281 221.316406 30.8125 L 221.117188 30.90625 L 221.316406 30.808594 C 221.316406 30.808594 223.761719 35.925781 223.761719 40.90625 C 223.761719 43.671875 223.007812 46.441406 220.613281 48.253906 L 220.480469 48.078125 L 220.613281 48.253906 C 219.492188 49.101562 218.222656 50.140625 217.046875 52.398438 L 217.046875 52.402344 C 217.054688 52.390625 216.503906 53.398438 216.503906 54.757812 C 216.503906 55.621094 216.726562 56.621094 217.449219 57.605469 L 217.09375 57.867188 C 216.304688 56.800781 216.0625 55.699219 216.0625 54.761719 C 216.0625 53.292969 216.652344 52.207031 216.660156 52.195312 L 216.851562 52.300781 L 216.65625 52.199219 C 217.875 49.859375 219.203125 48.773438 220.347656 47.90625 C 222.585938 46.210938 223.320312 43.605469 223.320312 40.910156 C 223.320312 36.035156 220.917969 31.003906 220.917969 31.003906 C 219.269531 27.539062 217.0625 21.914062 217.0625 21.917969 L 217.269531 21.835938 L 217.066406 21.925781 C 216.582031 20.839844 216.402344 19.707031 216.402344 18.632812 C 216.402344 15.449219 217.976562 12.6875 217.980469 12.683594 Z M 218.367188 12.898438 "/></clipPath><clipPath id="4c02651741"><path d="M 0.0234375 0.664062 L 7.890625 0.664062 L 7.890625 45.941406 L 0.0234375 45.941406 Z M 0.0234375 0.664062 "/></clipPath><clipPath id="e96df5a106"><path d="M 2.367188 0.898438 C 2.371094 0.890625 0.847656 3.566406 0.847656 6.632812 C 0.847656 7.660156 1.019531 8.722656 1.472656 9.746094 L 1.472656 9.75 L 1.476562 9.753906 C 1.476562 9.753906 3.675781 15.363281 5.316406 18.8125 L 5.117188 18.90625 L 5.316406 18.808594 C 5.316406 18.808594 7.761719 23.925781 7.761719 28.90625 C 7.761719 31.671875 7.007812 34.441406 4.613281 36.253906 L 4.480469 36.078125 L 4.613281 36.253906 C 3.492188 37.101562 2.222656 38.140625 1.046875 40.398438 L 1.046875 40.402344 C 1.054688 40.390625 0.503906 41.398438 0.503906 42.757812 C 0.503906 43.621094 0.726562 44.621094 1.449219 45.605469 L 1.09375 45.867188 C 0.304688 44.800781 0.0625 43.699219 0.0625 42.761719 C 0.0625 41.292969 0.652344 40.207031 0.660156 40.195312 L 0.851562 40.300781 L 0.65625 40.199219 C 1.875 37.859375 3.203125 36.773438 4.347656 35.90625 C 6.585938 34.210938 7.320312 31.605469 7.320312 28.910156 C 7.320312 24.035156 4.917969 19.003906 4.917969 19.003906 C 3.269531 15.539062 1.0625 9.914062 1.0625 9.917969 L 1.269531 9.835938 L 1.066406 9.925781 C 0.582031 8.839844 0.402344 7.707031 0.402344 6.632812 C 0.402344 3.449219 1.976562 0.6875 1.980469 0.683594 Z M 2.367188 0.898438 "/></clipPath><clipPath id="13d2268778"><rect x="0" width="8" y="0" height="46"/></clipPath><clipPath id="8d6b0c1766"><path d="M 218.296875 13.015625 L 225.464844 13.015625 L 225.464844 57.414062 L 218.296875 57.414062 Z M 218.296875 13.015625 "/></clipPath><clipPath id="ec7e7279f7"><path d="M 220.175781 13.324219 C 220.183594 13.3125 218.816406 15.558594 218.816406 18.722656 C 218.816406 20.347656 219.175781 22.214844 220.273438 24.144531 L 220.082031 24.253906 L 220.269531 24.136719 C 220.265625 24.132812 225.398438 32.453125 225.398438 40.144531 L 225.398438 40.207031 L 225.179688 40.238281 L 225.398438 40.214844 C 225.398438 40.222656 225.4375 40.574219 225.4375 41.136719 C 225.4375 42.679688 225.136719 45.914062 222.769531 47.882812 L 222.628906 47.714844 L 222.773438 47.882812 C 222.738281 47.910156 218.742188 51.292969 218.742188 54.050781 L 218.796875 54.582031 L 218.804688 54.609375 L 218.804688 54.648438 C 218.804688 54.761719 218.824219 55.527344 219.328125 57.265625 L 218.902344 57.386719 C 218.394531 55.621094 218.363281 54.8125 218.363281 54.648438 L 218.363281 54.621094 L 218.585938 54.625 L 218.367188 54.671875 C 218.324219 54.46875 218.304688 54.261719 218.304688 54.050781 C 218.304688 51.039062 222.523438 47.519531 222.492188 47.542969 C 224.695312 45.707031 225 42.660156 225 41.136719 C 225 40.59375 224.960938 40.261719 224.960938 40.265625 L 224.960938 40.144531 C 224.960938 32.59375 219.894531 24.375 219.894531 24.371094 L 219.890625 24.367188 L 219.890625 24.363281 C 218.753906 22.359375 218.375 20.417969 218.375 18.722656 C 218.375 15.445312 219.789062 13.113281 219.796875 13.101562 Z M 220.175781 13.324219 "/></clipPath><clipPath id="8c3718364a"><path d="M 0.296875 0.015625 L 7.464844 0.015625 L 7.464844 44.414062 L 0.296875 44.414062 Z M 0.296875 0.015625 "/></clipPath><clipPath id="6dbf05e167"><path d="M 2.175781 0.324219 C 2.183594 0.3125 0.816406 2.558594 0.816406 5.722656 C 0.816406 7.347656 1.175781 9.214844 2.273438 11.144531 L 2.082031 11.253906 L 2.269531 11.136719 C 2.265625 11.132812 7.398438 19.453125 7.398438 27.144531 L 7.398438 27.207031 L 7.179688 27.238281 L 7.398438 27.214844 C 7.398438 27.222656 7.4375 27.574219 7.4375 28.136719 C 7.4375 29.679688 7.136719 32.914062 4.769531 34.882812 L 4.628906 34.714844 L 4.773438 34.882812 C 4.738281 34.910156 0.742188 38.292969 0.742188 41.050781 L 0.796875 41.582031 L 0.804688 41.609375 L 0.804688 41.648438 C 0.804688 41.761719 0.824219 42.527344 1.328125 44.265625 L 0.902344 44.386719 C 0.394531 42.621094 0.363281 41.8125 0.363281 41.648438 L 0.363281 41.621094 L 0.585938 41.625 L 0.367188 41.671875 C 0.324219 41.46875 0.304688 41.261719 0.304688 41.050781 C 0.304688 38.039062 4.523438 34.519531 4.492188 34.542969 C 6.695312 32.707031 7 29.660156 7 28.136719 C 7 27.59375 6.960938 27.261719 6.960938 27.265625 L 6.960938 27.144531 C 6.960938 19.59375 1.894531 11.375 1.894531 11.371094 L 1.890625 11.367188 L 1.890625 11.363281 C 0.753906 9.359375 0.375 7.417969 0.375 5.722656 C 0.375 2.445312 1.789062 0.113281 1.796875 0.101562 Z M 2.175781 0.324219 "/></clipPath><clipPath id="07711cc03a"><rect x="0" width="8" y="0" height="45"/></clipPath><clipPath id="703b530600"><rect x="0" width="238" y="0" height="67"/></clipPath><clipPath id="4052b30aa5"><rect x="0" width="238" y="0" height="67"/></clipPath></defs><g id="2b1071d137"><g transform="matrix(1,0,0,1,9,9)"><g clip-path="url(#4052b30aa5)"><g clip-rule="nonzero" clip-path="url(#2c3b5a1d27)"><g><g id="85efe11963" clip-path="url(#703b530600)"><g clip-rule="nonzero" clip-path="url(#a8fd8f710b)"><g clip-rule="nonzero" clip-path="url(#7348a9d270)"><g transform="matrix(1,0,0,1,29,17)"><g id="27793d1633" clip-path="url(#4f1a3957a7)"><g clip-rule="nonzero" clip-path="url(#9c68a2d1d1)"><g clip-rule="nonzero" clip-path="url(#91f23ffcb1)"><rect x="0" width="36" height="36" y="0" style="fill:#ffffff;fill-opacity:1;stroke:none;"/></g></g></g></g></g></g><g clip-rule="nonzero" clip-path="url(#9b0b5462c0)"><g clip-rule="nonzero" clip-path="url(#fd62ec2672)"><g transform="matrix(1,0,0,1,1,17)"><g id="6bc7e08f2b" clip-path="url(#10e3b4166a)"><g clip-rule="nonzero" clip-path="url(#1be54a060c)"><g clip-rule="nonzero" clip-path="url(#953297fe61)"><rect x="0" width="10" height="36" y="0" style="fill:#ffffff;fill-opacity:1;stroke:none;"/></g></g></g></g></g></g><g clip-rule="nonzero" clip-path="url(#cf033d6627)"><g clip-rule="nonzero" clip-path="url(#a2f108b13b)"><g transform="matrix(1,0,0,1,9,17)"><g id="b20bbd610d" clip-path="url(#e6cca43fcb)"><g clip-rule="nonzero" clip-path="url(#1538eaca19)"><g clip-rule="nonzero" clip-path="url(#79e14bf590)"><rect x="0" width="11" height="26" y="0" style="fill:#ffffff;fill-opacity:1;stroke:none;"/></g></g></g></g></g></g><g clip-rule="nonzero" clip-path="url(#d9caab6cd8)"><g clip-rule="nonzero" clip-path="url(#05c2957120)"><g transform="matrix(1,0,0,1,16,17)"><g id="13f02efb63" clip-path="url(#3fa7d5b9a6)"><g clip-rule="nonzero" clip-path="url(#ae8c2f806f)"><g clip-rule="nonzero" clip-path="url(#bfebe6feca)"><rect x="0" width="13" height="11" y="0" style="fill:#ffffff;fill-opacity:1;stroke:none;"/></g></g></g></g></g></g><g clip-rule="nonzero" clip-path="url(#95a09171dd)"><g clip-rule="nonzero" clip-path="url(#52da5290a4)"><g transform="matrix(1,0,0,1,15,17)"><g id="84ce474f99" clip-path="url(#137f2ee861)"><g clip-rule="nonzero" clip-path="url(#b8d6a3d96d)"><g clip-rule="nonzero" clip-path="url(#5d90663dd6)"><rect x="0" width="12" height="7" y="0" style="fill:#ffffff;fill-opacity:1;stroke:none;"/></g></g></g></g></g></g><g clip-rule="nonzero" clip-path="url(#5ae99e604e)"><g clip-rule="nonzero" clip-path="url(#3ef20786d2)"><g transform="matrix(1,0,0,1,17,17)"><g id="7a64985e0b" clip-path="url(#c75704a1e7)"><g clip-rule="nonzero" clip-path="url(#7cac57d10c)"><g clip-rule="nonzero" clip-path="url(#409f028d30)"><rect x="0" width="9" height="9" y="0" style="fill:#ffffff;fill-opacity:1;stroke:none;"/></g></g></g></g></g></g><g clip-rule="nonzero" clip-path="url(#9c8c96c0be)"><g clip-rule="nonzero" clip-path="url(#339eb5980e)"><g transform="matrix(1,0,0,1,17,18)"><g id="ddbaaa9064" clip-path="url(#3bcc68581b)"><g clip-rule="nonzero" clip-path="url(#bf7727362d)"><g clip-rule="nonzero" clip-path="url(#7bd3b0bca8)"><rect x="0" width="8" height="9" y="0" style="fill:#ffffff;fill-opacity:1;stroke:none;"/></g></g></g></g></g></g><g clip-rule="nonzero" clip-path="url(#7e7bc1fdcb)"><g clip-rule="nonzero" clip-path="url(#aa4eba4639)"><g transform="matrix(1,0,0,1,17,18)"><g id="994983cddd" clip-path="url(#72d06be663)"><g clip-rule="nonzero" clip-path="url(#ee72735999)"><g clip-rule="nonzero" clip-path="url(#835b63ccdb)"><rect x="0" width="8" height="10" y="0" style="fill:#ffffff;fill-opacity:1;stroke:none;"/></g></g></g></g></g></g><g clip-rule="nonzero" clip-path="url(#662164f3ea)"><g clip-rule="nonzero" clip-path="url(#1e5d0b3a69)"><g transform="matrix(1,0,0,1,17,18)"><g id="cee652da73" clip-path="url(#eb4ed7aa74)"><g clip-rule="nonzero" clip-path="url(#1e79d0ef3a)"><g clip-rule="nonzero" clip-path="url(#dbebac5922)"><rect x="0" width="7" height="10" y="0" style="fill:#ffffff;fill-opacity:1;stroke:none;"/></g></g></g></g></g></g><g clip-rule="nonzero" clip-path="url(#e4d6815336)"><g clip-rule="nonzero" clip-path="url(#e84f65baa6)"><g transform="matrix(1,0,0,1,23,18)"><g id="8fe88da341" clip-path="url(#c1d1f3513a)"><g clip-rule="nonzero" clip-path="url(#6e84029961)"><g clip-rule="nonzero" clip-path="url(#f5e08422a9)"><rect x="0" width="5" height="5" y="0" style="fill:#ffffff;fill-opacity:1;stroke:none;"/></g></g></g></g></g></g><g clip-rule="nonzero" clip-path="url(#e346da2c01)"><g clip-rule="nonzero" clip-path="url(#df76daab52)"><g transform="matrix(1,0,0,1,69,0)"><g id="9e0db46edc" clip-path="url(#6349cdaa70)"><g clip-rule="nonzero" clip-path="url(#24568a5f2b)"><g clip-rule="nonzero" clip-path="url(#83f30758eb)"><path style=" stroke:none;fill-rule:nonzero;fill:#ffffff;fill-opacity:1;" d="M 0.929688 0.0976562 L 24.878906 0.0976562 L 24.878906 52.296875 L 0.929688 52.296875 Z M 0.929688 0.0976562 "/></g></g></g></g></g></g><g clip-rule="nonzero" clip-path="url(#e320a4704f)"><g clip-rule="nonzero" clip-path="url(#92fca9233d)"><g transform="matrix(1,0,0,1,96,17)"><g id="be60a93ea2" clip-path="url(#dbb9a682d5)"><g clip-rule="nonzero" clip-path="url(#dd1fea7b1b)"><g clip-rule="nonzero" clip-path="url(#af7e72c7ce)"><path style=" stroke:none;fill-rule:nonzero;fill:#ffffff;fill-opacity:1;" d="M 0.773438 0.460938 L 34.488281 0.460938 L 34.488281 35.757812 L 0.773438 35.757812 Z M 0.773438 0.460938 "/></g></g></g></g></g></g><g clip-rule="nonzero" clip-path="url(#fa29b19192)"><g clip-rule="nonzero" clip-path="url(#b06b8a5e62)"><g transform="matrix(1,0,0,1,135,15)"><g id="9964fe9cdc" clip-path="url(#2095d0a737)"><g clip-rule="nonzero" clip-path="url(#b147aad15f)"><g clip-rule="nonzero" clip-path="url(#ce0f556e91)"><rect x="0" width="45" height="51" y="0" style="fill:#ffffff;fill-opacity:1;stroke:none;"/></g></g></g></g></g></g><g clip-rule="nonzero" clip-path="url(#e1cd8a6b7d)"><g clip-rule="nonzero" clip-path="url(#4962d30d9f)"><g transform="matrix(1,0,0,1,179,4)"><g id="07008f44cb" clip-path="url(#4c6c387245)"><g clip-rule="nonzero" clip-path="url(#d8a69a30a5)"><g clip-rule="nonzero" clip-path="url(#516914f8b5)"><rect x="0" width="10" height="49" y="0" style="fill:#ffffff;fill-opacity:1;stroke:none;"/></g></g></g></g></g></g><g clip-rule="nonzero" clip-path="url(#8232982e79)"><g clip-rule="nonzero" clip-path="url(#eb526e2edf)"><g transform="matrix(1,0,0,1,193,17)"><g id="b95acedcf9" clip-path="url(#dee704f089)"><g clip-rule="nonzero" clip-path="url(#334aa99653)"><g clip-rule="nonzero" clip-path="url(#66116472de)"><rect x="0" width="21" height="36" y="0" style="fill:#ffffff;fill-opacity:1;stroke:none;"/></g></g></g></g></g></g><g clip-rule="nonzero" clip-path="url(#83e9b2ec85)"><g clip-rule="nonzero" clip-path="url(#aebc432c76)"><g transform="matrix(1,0,0,1,212,12)"><g id="f02da33832" clip-path="url(#523af5fcfd)"><g clip-rule="nonzero" clip-path="url(#77900ca07d)"><g clip-rule="nonzero" clip-path="url(#ea77f2505d)"><rect x="0" width="25" height="47" y="0" style="fill:#ffffff;fill-opacity:1;stroke:none;"/></g></g></g></g></g></g><g clip-rule="nonzero" clip-path="url(#5005730ff8)"><g clip-rule="nonzero" clip-path="url(#c03456ebf1)"><g transform="matrix(1,0,0,1,220,13)"><g id="3352e79b3d" clip-path="url(#281e5b9b39)"><g clip-rule="nonzero" clip-path="url(#248c8e4517)"><g clip-rule="nonzero" clip-path="url(#9b712d3aa3)"><rect x="0" width="8" height="44" y="0" style="fill:#ffffff;fill-opacity:1;stroke:none;"/></g></g></g></g></g></g><g clip-rule="nonzero" clip-path="url(#9c8ad9d184)"><g clip-rule="nonzero" clip-path="url(#668ed7d7e8)"><g transform="matrix(1,0,0,1,222,14)"><g id="3177f97b7c" clip-path="url(#79a7a85457)"><g clip-rule="nonzero" clip-path="url(#3672565c39)"><g clip-rule="nonzero" clip-path="url(#58d1d05fd2)"><rect x="0" width="8" height="43" y="0" style="fill:#ffffff;fill-opacity:1;stroke:none;"/></g></g></g></g></g></g><g clip-rule="nonzero" clip-path="url(#2b613cd043)"><g clip-rule="nonzero" clip-path="url(#cf4f1db229)"><g transform="matrix(1,0,0,1,224,15)"><g id="1321c90cb3" clip-path="url(#c7663a8529)"><g clip-rule="nonzero" clip-path="url(#b7660b720f)"><g clip-rule="nonzero" clip-path="url(#5960df261d)"><rect x="0" width="8" height="41" y="0" style="fill:#ffffff;fill-opacity:1;stroke:none;"/></g></g></g></g></g></g><g clip-rule="nonzero" clip-path="url(#36d0888107)"><g clip-rule="nonzero" clip-path="url(#6c6d9ed75c)"><g transform="matrix(1,0,0,1,226,16)"><g id="fa7e646c7e" clip-path="url(#e026496993)"><g clip-rule="nonzero" clip-path="url(#a35324f770)"><g clip-rule="nonzero" clip-path="url(#14ce6d780f)"><rect x="0" width="9" height="38" y="0" style="fill:#ffffff;fill-opacity:1;stroke:none;"/></g></g></g></g></g></g><g clip-rule="nonzero" clip-path="url(#64acd60e98)"><g clip-rule="nonzero" clip-path="url(#e305410c20)"><g transform="matrix(1,0,0,1,229,19)"><g id="405e8ca3cf" clip-path="url(#87ec80f1fb)"><g clip-rule="nonzero" clip-path="url(#d44863685d)"><g clip-rule="nonzero" clip-path="url(#26c74bfc48)"><rect x="0" width="7" height="19" y="0" style="fill:#ffffff;fill-opacity:1;stroke:none;"/></g></g></g></g></g></g><g clip-rule="nonzero" clip-path="url(#8077347110)"><g clip-rule="nonzero" clip-path="url(#f43eca4bd6)"><g transform="matrix(1,0,0,1,213,12)"><g id="35ad066bef" clip-path="url(#a227ce6b3b)"><g clip-rule="nonzero" clip-path="url(#bb211b95af)"><g clip-rule="nonzero" clip-path="url(#29c46ff89a)"><rect x="0" width="9" height="47" y="0" style="fill:#ffffff;fill-opacity:1;stroke:none;"/></g></g></g></g></g></g><g clip-rule="nonzero" clip-path="url(#81f68bc73a)"><g clip-rule="nonzero" clip-path="url(#a6a59d0301)"><g transform="matrix(1,0,0,1,216,12)"><g id="87a2f09af2" clip-path="url(#13d2268778)"><g clip-rule="nonzero" clip-path="url(#4c02651741)"><g clip-rule="nonzero" clip-path="url(#e96df5a106)"><rect x="0" width="8" height="46" y="0" style="fill:#ffffff;fill-opacity:1;stroke:none;"/></g></g></g></g></g></g><g clip-rule="nonzero" clip-path="url(#8d6b0c1766)"><g clip-rule="nonzero" clip-path="url(#ec7e7279f7)"><g transform="matrix(1,0,0,1,218,13)"><g id="85932de2bf" clip-path="url(#07711cc03a)"><g clip-rule="nonzero" clip-path="url(#8c3718364a)"><g clip-rule="nonzero" clip-path="url(#6dbf05e167)"><rect x="0" width="8" height="45" y="0" style="fill:#ffffff;fill-opacity:1;stroke:none;"/></g></g></g></g></g></g></g></g></g></g></g></g></svg>